<?xml version="1.0" encoding="utf-8"?>
<!-- Generator: Adobe Illustrator 25.0.0, SVG Export Plug-In . SVG Version: 6.00 Build 0)  -->
<svg version="1.1" id="Layer_1" xmlns="http://www.w3.org/2000/svg" xmlns:xlink="http://www.w3.org/1999/xlink" x="0px" y="0px"
	 viewBox="0 0 1524.5 294.2" style="enable-background:new 0 0 1524.5 294.2;" xml:space="preserve">
<style type="text/css">
	.st0{fill:url(#SVGID_1_);}
	.st1{fill:#133D59;}
	.st2{fill:url(#SVGID_2_);}
	.st3{fill:#FFFFFF;}
</style>
<g id="Full_Logotype">
	<g>
		
			<linearGradient id="SVGID_1_" gradientUnits="userSpaceOnUse" x1="-1398.8345" y1="835.4907" x2="-1396.6744" y2="615.1707" gradientTransform="matrix(1 0 0 1 0 -977.9355)">
			<stop  offset="0.1706" style="stop-color:#FFFFFF"/>
			<stop  offset="0.1919" style="stop-color:#FEFBF4"/>
			<stop  offset="0.3151" style="stop-color:#FBE9BB"/>
			<stop  offset="0.4385" style="stop-color:#F9D98A"/>
			<stop  offset="0.5596" style="stop-color:#F7CB62"/>
			<stop  offset="0.6778" style="stop-color:#F5C143"/>
			<stop  offset="0.7924" style="stop-color:#F4BA2D"/>
			<stop  offset="0.9016" style="stop-color:#F3B520"/>
			<stop  offset="1" style="stop-color:#F3B41B"/>
		</linearGradient>
		<path class="st0" d="M-1350.1-239.3c-0.7,1-1.5,2-2.2,3c-1.3,1.7-2.6,3.5-3.9,5.2c-11.6,15.5-22.6,30.2-25.2,52.5h-16l0,0h-16
			c-2.6-22.3-13.6-37-25.2-52.5c-1.3-1.7-2.6-3.5-3.9-5.2c-0.7-1-1.5-2-2.2-3c-10.9-14.7-22.2-30-20.5-54.3c0-0.6,0.1-1.2,0.2-1.8
			c22.5-20.1,45.1-40.3,67.6-60.4l0,0l0,0c22.5,20.1,45.1,40.2,67.6,60.4c0.1,0.6,0.1,1.2,0.2,1.8
			C-1327.9-269.2-1339.2-254-1350.1-239.3z"/>
		<g>
			<path class="st1" d="M-1371.9-158.2c-2.6-0.6-6.4-0.8-12.2-0.8c-3,0-6.3,0.1-9.5,0.1c-3.1,0.1-6.4,0.1-9.3,0.1
				c-1.3,0-2.6,0-4.1,0s-3-0.1-4.5-0.1c-5.3,0-16.3,0-16.8,6.9c-0.1,1.9,0.5,3.5,1.8,4.7c3,2.8,9.1,3.2,14.7,3.2
				c2.6,0,5.3-0.1,7.9-0.2c2.6-0.1,5-0.2,7.3-0.2c1.6,0,3.5,0,5.5,0c4.3,0,9,0,13,0c6.9-0.1,13.3-0.1,13.8-6.3
				C-1363.8-156.5-1368.5-157.4-1371.9-158.2z"/>
			<path class="st1" d="M-1371.9-138.5c-2.6-0.6-6.4-0.8-12.2-0.8c-3,0-6.3,0.1-9.5,0.1c-3.1,0.1-6.4,0.1-9.3,0.1
				c-1.3,0-2.6,0-4.1,0s-3-0.1-4.5-0.1c-5.3,0-16.3,0-16.8,6.9c-0.1,1.9,0.5,3.5,1.8,4.8c3,2.8,9.1,3.2,14.7,3.2
				c2.6,0,5.3-0.1,7.9-0.2s5-0.2,7.3-0.2c1.6,0,3.5,0,5.5,0c4.3,0,9,0,13,0c6.9-0.1,13.3-0.1,13.8-6.3
				C-1363.8-136.7-1368.5-137.7-1371.9-138.5z"/>
			<path class="st1" d="M-1381-120.3L-1381-120.3c-1.8-0.5-4.8-0.7-10.2-0.7c-2,0-4.2,0-6.3,0.1c-1.7,0-3.3,0-4.9,0
				c-6.7,0-15,0.1-15.6,6.3c-0.2,2,0.4,3.7,1.7,4.9c2.4,2.2,6.7,2.7,12.8,2.7c1.1,0,2.2,0,3.3,0s2.3,0,3.5,0c1.3,0,2.7,0,4.1,0.1
				c1.4,0,2.8,0.1,4.1,0.1c4.3,0,13.3,0,13.7-6.5C-1374.3-118.5-1378-119.5-1381-120.3z"/>
		</g>
		<g>
			<path class="st1" d="M-1312.9-295.3c0,0-0.3-3-0.8-6c-0.3-1.8-9.6-11.2-25.5-25.1v22.8c2.7,2.4,5.5,4.8,8.2,7.2
				c0.8,0.7,1.4,1.8,1.5,2.9l0,0c1.7,23.8-9.6,38.7-20.5,53.1c-0.7,1-1.5,2-2.2,2.9c-1.3,1.7-2.6,3.4-3.9,5.1
				c-10.9,14.3-21.3,27.9-24.6,47.7c-0.4,2.1-2.1,3.7-4.3,3.7h-12.3l0,0h-12.2c-2.1,0-3.9-1.6-4.3-3.7
				c-3.3-19.8-13.7-33.4-24.6-47.7c-1.3-1.7-2.6-3.4-3.9-5.1c-0.7-1-1.5-2-2.2-2.9c-10.9-14.4-22.2-29.3-20.5-53.1l0,0
				c0.1-1.1,0.6-2.2,1.5-2.9l66.3-57.9l0,0l0,0c11.2,9.7,22.3,19.5,33.5,29.2v-22c-10-8.1-21.2-16.9-33.5-26.2v0.1
				c-49.9,37.6-83,68.4-83.7,72c-0.6,3-0.8,6-0.8,6c0,0.5-0.1,1.7-0.2,3.5c-0.1,3-0.1,6.1,0.2,9.2c1.6,21.3,12.3,35.7,22.7,49.5
				c0.8,1.1,1.6,2.2,2.5,3.3c1.5,2.1,3.2,4.2,4.9,6.4c3.7,4.8,7.6,9.7,11.2,15.4c5.7,9,11.5,21.2,10.7,26.5c-0.2,1.1-0.9,2-1.7,3
				c-1.5,1.8-3.3,4.1-2.3,8.1c1.4,5.3,8,5.3,14.5,5.3l0,0h22.1l0,0h22.1l0,0c6.4,0,13,0,14.5-5.3c1.1-4-0.8-6.3-2.3-8.1
				c-0.8-1-1.6-1.9-1.7-3c-0.8-5.4,5-17.5,10.7-26.5c3.6-5.7,7.5-10.7,11.2-15.4c1.7-2.2,3.4-4.3,4.9-6.4c0.8-1.1,1.6-2.2,2.5-3.3
				c10.3-13.9,21-28.2,22.9-58.8C-1312.6-293.5-1312.8-294.8-1312.9-295.3z"/>
			<path class="st1" d="M-1339.2-362.1h-24.7v15c9.4,7.6,17.7,14.6,24.7,20.7V-362.1z"/>
			<path class="st1" d="M-1339.2-281.8v-22.8c-7-6.1-15.3-13.1-24.7-20.7v22C-1355.7-296.2-1347.5-289-1339.2-281.8z"/>
		</g>
	</g>
	<g>
		<g>
			<rect x="-1418" y="-303.6" class="st1" width="16.6" height="16.6"/>
			<rect x="-1393.5" y="-303.6" class="st1" width="16.6" height="16.6"/>
		</g>
		<g>
			<rect x="-1418" y="-279.2" class="st1" width="16.6" height="16.6"/>
			<rect x="-1393.5" y="-279.2" class="st1" width="16.6" height="16.6"/>
		</g>
	</g>
	<g>
		<path class="st1" d="M-1266.4-335.2h13.3v84.6h-13.3V-335.2z"/>
		<path class="st1" d="M-1243.4-335.2h21c13.3,0,19.8,7.4,19.8,20.9v42.8c0,13.5-6.5,20.9-19.8,20.9h-21V-335.2z M-1230.1-323.1
			v60.4h7.5c4.2,0,6.8-2.2,6.8-8.2v-44c0-6-2.5-8.2-6.8-8.2L-1230.1-323.1L-1230.1-323.1z"/>
		<path class="st1" d="M-1180.8-299.5h18.2v12.1h-18.2v24.8h23v12.1h-36.3v-84.6h36.3v12.1h-23V-299.5z"/>
		<path class="st1" d="M-1149.6-335.2h13.3v84.6h-13.3V-335.2z"/>
		<path class="st1" d="M-1083.7-250.6h-13.4l-2.3-15.3h-16.3l-2.3,15.3h-12.2l13.5-84.6h19.5L-1083.7-250.6z M-1114-277.4h12.8
			l-6.4-42.8L-1114-277.4z"/>
		<path class="st1" d="M-1059.6-336.1c12.9,0,19.6,7.7,19.6,21.3v2.7h-12.6v-3.5c0-6-2.4-8.3-6.6-8.3s-6.6,2.3-6.6,8.3
			c0,17.4,26,20.7,26,44.8c0,13.5-6.8,21.3-19.8,21.3s-19.8-7.7-19.8-21.3v-5.2h12.6v6c0,6,2.7,8.2,6.9,8.2c4.2,0,6.9-2.2,6.9-8.2
			c0-17.4-26-20.7-26-44.8C-1079.2-328.4-1072.5-336.1-1059.6-336.1z"/>
		<path class="st1" d="M-994.8-248.2c-13.7,0-21.2-8.1-21.2-22.7v-44c0-14.6,7.5-22.7,21.2-22.7s21.2,8.1,21.2,22.7v9.6H-989v-10.5
			c0-6.1-2.9-6.9-5.5-6.9c-2.5,0-5.5,0.8-5.5,6.9v45.8c0,6,2.8,6.8,5.5,6.8s5.5-0.8,5.5-6.8v-13.5h15.4v12.7
			C-973.6-256.2-981.1-248.2-994.8-248.2z M-994.8-334.7c-12,0-18.4,6.9-18.4,19.9v44c0,13,6.4,19.9,18.4,19.9s18.4-6.9,18.4-19.9
			v-9.8h-9.7v10.6c0,8-4.5,9.6-8.3,9.6s-8.3-1.7-8.3-9.6v-45.7c0-8.1,4.5-9.8,8.3-9.8s8.3,1.7,8.3,9.8v7.6h9.7v-6.8
			C-976.4-327.8-982.8-334.7-994.8-334.7z"/>
		<path class="st1" d="M-947.8-248.2c-13.7,0-21.6-8.3-21.6-22.7v-44c0-14.4,7.9-22.7,21.6-22.7c13.7,0,21.6,8.3,21.6,22.7v44
			C-926.2-256.4-934.1-248.2-947.8-248.2z M-947.8-334.7c-12.1,0-18.8,7.1-18.8,19.9v44c0,12.8,6.7,19.9,18.8,19.9
			s18.8-7.1,18.8-19.9v-44C-929.1-327.7-935.7-334.7-947.8-334.7z M-947.8-260.3c-3.8,0-8.3-1.7-8.3-9.8v-45.7
			c0-8.1,4.5-9.8,8.3-9.8s8.3,1.7,8.3,9.8v45.8C-939.5-262-944-260.3-947.8-260.3z M-947.8-322.6c-2.5,0-5.5,0.8-5.5,6.9v45.7
			c0,6.1,2.9,6.9,5.5,6.9c2.5,0,5.5-0.8,5.5-6.9v-45.7C-942.4-321.8-945.3-322.6-947.8-322.6z"/>
		<path class="st1" d="M-861.9-249.1h-15.4v-43.3l-6.5,43.3h-15l-7.3-44v44h-14.4v-87.4h21l8.5,52.3l7.9-52.3h21.1L-861.9-249.1
			L-861.9-249.1z M-874.5-252h9.7v-81.8h-15.9l-10.2,67.8l-11-67.8h-15.9v81.8h8.8v-58.4l2.8-0.2l9.7,58.6h10.1l9-59.5l2.8,0.2v59.3
			L-874.5-252L-874.5-252z"/>
		<path class="st1" d="M-791.5-249.1h-16.7l-0.4-1.1c-0.7-2.2-1.2-3.7-1.2-10.7v-13.3c0-7.8-2.7-9.3-7.3-9.3h-3.2v34.4h-16.1v-87.4
			h21.5c14.2,0,21.1,6.8,21.1,20.9v6.6c0,8.2-2.4,13.8-7.2,17.1c6.5,4.2,7.3,12.2,7.3,18.1v13.1c0,3.8,0.1,6.8,1.3,9.7L-791.5-249.1
			z M-806.1-252h10.5c-0.8-2.7-0.9-5.5-0.9-8.9V-274c0-9.2-2.5-14.4-8-16.7l-2.9-1.2l2.9-1.4c5.3-2.5,7.9-7.7,7.9-15.9v-6.6
			c0-12.5-5.6-18-18.3-18h-18.6v81.8h10.5v-34.4h6c7,0,10.1,3.8,10.1,12.2v13.3C-807-255.4-806.6-253.6-806.1-252z M-816.5-295.7
			h-6.6v-28.8h7.8c5.5,0,8.2,3.3,8.2,10.1v8.3C-807.1-299.1-810.1-295.7-816.5-295.7z M-820.2-298.5h3.8c3.9,0,6.6-1.3,6.6-7.5v-8.3
			c0-6-2.1-7.3-5.4-7.3h-5L-820.2-298.5L-820.2-298.5z"/>
		<path class="st1" d="M-748.7-249.1h-39.1v-87.4h39.1v14.9h-23v20.7h18.2v14.9h-18.2v21.9h23V-249.1z M-785-252h33.5v-9.2h-23
			v-27.6h18.2v-9.2h-18.2v-26.4h23v-9.2h-33.4L-785-252L-785-252z"/>
		<path class="st1" d="M-705.3-249.1h-38v-87.4h16.1v72.5h21.9V-249.1z M-740.5-252h32.3v-9.2h-21.9v-72.5h-10.4L-740.5-252
			L-740.5-252z"/>
		<path class="st1" d="M-663.3-249.1h-39.1v-87.4h39.1v14.9h-23v20.7h18.2v14.9h-18.2v21.9h23V-249.1z M-699.5-252h33.4v-9.2h-23
			v-27.6h18.2v-9.2h-18.2v-26.4h23v-9.2h-33.4V-252z"/>
		<path class="st1" d="M-625.9-249.1h-22.3l-0.2-1.2l-13.3-86.2h16.3l8.9,60.7l8.9-60.7h15.1L-625.9-249.1z M-645.7-252h17.4
			l12.6-81.8h-9.3l-11.4,77.3l-11.4-77.3h-10.5L-645.7-252z"/>
		<path class="st1" d="M-588.9-248.2c-13.7,0-21.6-8.3-21.6-22.7v-44c0-14.4,7.9-22.7,21.6-22.7c13.7,0,21.6,8.3,21.6,22.7v44
			C-567.3-256.4-575.2-248.2-588.9-248.2z M-588.9-334.7c-12.1,0-18.8,7.1-18.8,19.9v44c0,12.8,6.7,19.9,18.8,19.9
			s18.8-7.1,18.8-19.9v-44C-570.1-327.7-576.8-334.7-588.9-334.7z M-588.9-260.3c-3.8,0-8.3-1.7-8.3-9.8v-45.7
			c0-8.1,4.5-9.8,8.3-9.8s8.3,1.7,8.3,9.8v45.8C-580.6-262-585.1-260.3-588.9-260.3z M-588.9-322.6c-2.5,0-5.5,0.8-5.5,6.9v45.7
			c0,6.1,2.9,6.9,5.5,6.9c2.5,0,5.5-0.8,5.5-6.9v-45.7C-583.4-321.8-586.4-322.6-588.9-322.6z"/>
	</g>
	<g>
		<path class="st1" d="M-1257.1-211.3h7.3v46.5h-7.3V-211.3z"/>
		<path class="st1" d="M-1238-198.5v33.6h-6.5v-46.5h9.2l7.5,27.8v-27.8h6.5v46.5h-7.5L-1238-198.5z"/>
		<path class="st1" d="M-1205.1-173.4l5.6-37.9h6.7l-7.2,46.5h-10.9l-7.2-46.5h7.4L-1205.1-173.4z"/>
		<path class="st1" d="M-1182.2-191.7h10v6.6h-10v13.6h12.7v6.6h-20v-46.5h20v6.6h-12.6L-1182.2-191.7L-1182.2-191.7z"/>
		<path class="st1" d="M-1155.2-211.8c7.1,0,10.8,4.2,10.8,11.7v1.5h-6.9v-1.9c0-3.3-1.3-4.6-3.6-4.6s-3.6,1.3-3.6,4.6
			c0,9.6,14.3,11.3,14.3,24.6c0,7.4-3.7,11.7-10.9,11.7c-7.2,0-10.9-4.2-10.9-11.7v-2.9h6.9v3.3c0,3.3,1.5,4.5,3.8,4.5
			s3.8-1.2,3.8-4.5c0-9.6-14.3-11.3-14.3-24.6C-1166-207.6-1162.3-211.8-1155.2-211.8z"/>
		<path class="st1" d="M-1142.3-211.3h22.6v6.6h-7.6v39.8h-7.3v-39.8h-7.6L-1142.3-211.3L-1142.3-211.3z"/>
		<path class="st1" d="M-1116.6-211.3h7.3v46.5h-7.3V-211.3z"/>
		<path class="st1" d="M-1088.5-178.3l5-33h10.2v46.5h-6.9v-33.3l-5,33.3h-6.9l-5.4-32.8v32.8h-6.4v-46.5h10.2L-1088.5-178.3z"/>
		<path class="st1" d="M-1060.8-191.7h10v6.6h-10v13.6h12.6v6.6h-19.9v-46.5h19.9v6.6h-12.6V-191.7z"/>
		<path class="st1" d="M-1037.2-198.5v33.6h-6.6v-46.5h9.2l7.5,27.8v-27.8h6.5v46.5h-7.5L-1037.2-198.5z"/>
		<path class="st1" d="M-1017.4-211.3h22.6v6.6h-7.7v39.8h-7.3v-39.8h-7.6V-211.3L-1017.4-211.3z"/>
		<path class="st1" d="M-992.3-200.2c0-7.4,3.9-11.7,11.1-11.7s11.1,4.2,11.1,11.7v24.2c0,7.4-3.9,11.7-11.1,11.7
			s-11.1-4.2-11.1-11.7V-200.2z M-985-175.5c0,3.3,1.5,4.6,3.8,4.6s3.8-1.3,3.8-4.6v-25.1c0-3.3-1.5-4.6-3.8-4.6s-3.8,1.3-3.8,4.6
			V-175.5z"/>
		<path class="st1" d="M-955.6-211.8c7.1,0,10.8,4.2,10.8,11.7v1.5h-6.9v-1.9c0-3.3-1.3-4.6-3.6-4.6s-3.6,1.3-3.6,4.6
			c0,9.6,14.3,11.3,14.3,24.6c0,7.4-3.7,11.7-10.9,11.7s-11-4.4-11-11.8v-2.9h6.9v3.3c0,3.3,1.5,4.5,3.8,4.5s3.8-1.2,3.8-4.5
			c0-9.6-14.3-11.3-14.3-24.6C-966.3-207.6-962.7-211.8-955.6-211.8z"/>
		<path class="st1" d="M-930.3-211.3h7.3v46.5h-7.3V-211.3z"/>
		<path class="st1" d="M-902.2-178.3l5-33h10.2v46.5h-6.9v-33.3l-5,33.3h-6.9l-5.4-32.8v32.8h-6.4v-46.5h10.2L-902.2-178.3z"/>
		<path class="st1" d="M-882.4-200.2c0-7.4,3.9-11.7,11.1-11.7s11.1,4.2,11.1,11.7v24.2c0,7.4-3.9,11.7-11.1,11.7
			s-11.1-4.2-11.1-11.7V-200.2z M-875.1-175.5c0,3.3,1.5,4.6,3.8,4.6s3.8-1.3,3.8-4.6v-25.1c0-3.3-1.5-4.6-3.8-4.6s-3.8,1.3-3.8,4.6
			V-175.5z"/>
		<path class="st1" d="M-833.7-200.6v1.7c0,4.8-1.5,7.8-4.7,9.4c3.9,1.5,5.4,5,5.4,10v3.8c0,7.2-3.8,11-11.1,11h-11.4v-46.5h11
			C-836.9-211.3-833.7-207.8-833.7-200.6z M-848.2-204.7v12.3h2.9c2.7,0,4.4-1.2,4.4-4.9v-2.6c0-3.3-1.1-4.8-3.7-4.8H-848.2z
			 M-848.2-185.8v14.3h4.2c2.5,0,3.8-1.1,3.8-4.6v-4c0-4.3-1.4-5.6-4.7-5.6L-848.2-185.8L-848.2-185.8z"/>
		<path class="st1" d="M-828.6-211.3h7.3v46.5h-7.3V-211.3z"/>
		<path class="st1" d="M-816-211.3h7.3v39.8h12v6.6H-816V-211.3z"/>
		<path class="st1" d="M-793.5-211.3h7.3v46.5h-7.3V-211.3z"/>
		<path class="st1" d="M-757.2-164.9h-7.4l-1.3-8.4h-9l-1.3,8.4h-6.7l7.4-46.5h10.7L-757.2-164.9z M-773.9-179.6h7l-3.5-23.5
			L-773.9-179.6z"/>
		<path class="st1" d="M-738.6-164.9c-0.4-1.2-0.7-1.9-0.7-5.7v-7.3c0-4.3-1.5-5.9-4.8-5.9h-2.5v18.9h-7.3v-46.5h11
			c7.6,0,10.8,3.5,10.8,10.7v3.6c0,4.8-1.5,7.9-4.8,9.4c3.6,1.5,4.8,5,4.8,9.9v7.2c0,2.3,0.1,3.9,0.8,5.6L-738.6-164.9L-738.6-164.9
			z M-746.6-204.7v14.3h2.9c2.7,0,4.4-1.2,4.4-4.9v-4.6c0-3.3-1.1-4.8-3.7-4.8H-746.6z"/>
		<path class="st1" d="M-727.2-211.3h7.3v46.5h-7.3V-211.3z"/>
		<path class="st1" d="M-715.2-200.2c0-7.4,3.9-11.7,11.1-11.7s11.1,4.2,11.1,11.7v24.2c0,7.4-3.9,11.7-11.1,11.7
			s-11.1-4.2-11.1-11.7V-200.2z M-707.9-175.5c0,3.3,1.5,4.6,3.8,4.6s3.8-1.3,3.8-4.6v-25.1c0-3.3-1.5-4.6-3.8-4.6s-3.8,1.3-3.8,4.6
			V-175.5z"/>
		<path class="st1" d="M-678.5-211.8c7.1,0,10.8,4.2,10.8,11.7v1.5h-6.9v-1.9c0-3.3-1.3-4.6-3.6-4.6s-3.6,1.3-3.6,4.6
			c0,9.6,14.3,11.3,14.3,24.6c0,7.4-3.7,11.7-10.9,11.7s-10.9-4.2-10.9-11.7v-2.9h6.9v3.3c0,3.3,1.5,4.5,3.8,4.5s3.8-1.2,3.8-4.5
			c0-9.6-14.3-11.3-14.3-24.6C-689.2-207.6-685.6-211.8-678.5-211.8z"/>
		<path class="st1" d="M-663.8-164.9v-7h7v6.3l-3.2,7.4h-3l1.9-6.6L-663.8-164.9L-663.8-164.9z"/>
		<path class="st1" d="M-641.2-211.3h7.3v39.8h12v6.6h-19.3V-211.3z"/>
		<path class="st1" d="M-618.7-211.3h11.5c7.3,0,10.9,4,10.9,11.5v23.5c0,7.4-3.6,11.5-10.9,11.5h-11.5V-211.3z M-611.4-204.7v33.2
			h4.1c2.3,0,3.7-1.2,3.7-4.5v-24.2c0-3.3-1.4-4.5-3.7-4.5H-611.4z"/>
		<path class="st1" d="M-568-164.9h-7.4l-1.3-8.4h-9l-1.3,8.4h-6.7l7.4-46.5h10.8L-568-164.9z M-584.7-179.6h7l-3.5-23.5
			L-584.7-179.6z"/>
	</g>
</g>
<g id="Logo">
	<g>
		<g>
			
				<linearGradient id="SVGID_2_" gradientUnits="userSpaceOnUse" x1="-234.0565" y1="858.1409" x2="-231.3951" y2="586.6765" gradientTransform="matrix(1 0 0 1 0 -977.9355)">
				<stop  offset="0.1706" style="stop-color:#FFFFFF"/>
				<stop  offset="0.1919" style="stop-color:#FEFBF4"/>
				<stop  offset="0.3151" style="stop-color:#FBE9BB"/>
				<stop  offset="0.4385" style="stop-color:#F9D98A"/>
				<stop  offset="0.5596" style="stop-color:#F7CB62"/>
				<stop  offset="0.6778" style="stop-color:#F5C143"/>
				<stop  offset="0.7924" style="stop-color:#F4BA2D"/>
				<stop  offset="0.9016" style="stop-color:#F3B520"/>
				<stop  offset="1" style="stop-color:#F3B41B"/>
			</linearGradient>
			<path class="st2" d="M-174-239.1c-0.9,1.2-1.8,2.5-2.7,3.7c-1.6,2.1-3.2,4.3-4.8,6.4c-14.3,19.1-27.8,37.2-31,64.7h-19.7l0,0
				H-252c-3.2-27.5-16.8-45.6-31-64.7c-1.6-2.1-3.2-4.3-4.8-6.4c-0.9-1.2-1.8-2.5-2.7-3.7c-13.4-18.1-27.4-37-25.3-66.9
				c0-0.7,0.1-1.5,0.2-2.2c27.7-24.8,55.6-49.7,83.3-74.4l0,0l0,0c27.7,24.8,55.6,49.5,83.3,74.4c0.1,0.7,0.1,1.5,0.2,2.2
				C-146.6-275.9-160.6-257.2-174-239.1z"/>
			<g>
				<path class="st1" d="M-200.9-139.2c-3.2-0.7-7.9-1-15-1c-3.7,0-7.8,0.1-11.7,0.1c-3.8,0.1-7.9,0.1-11.5,0.1c-1.6,0-3.2,0-5.1,0
					s-3.7-0.1-5.5-0.1c-6.5,0-20.1,0-20.7,8.5c-0.1,2.3,0.6,4.3,2.2,5.8c3.7,3.4,11.2,3.9,18.1,3.9c3.2,0,6.5-0.1,9.7-0.2
					s6.2-0.2,9-0.2c2,0,4.3,0,6.8,0c5.3,0,11.1,0,16,0c8.5-0.1,16.4-0.1,17-7.8C-190.9-137.1-196.7-138.2-200.9-139.2z"/>
				<path class="st1" d="M-200.9-114.9c-3.2-0.7-7.9-1-15-1c-3.7,0-7.8,0.1-11.7,0.1c-3.8,0.1-7.9,0.1-11.5,0.1c-1.6,0-3.2,0-5.1,0
					s-3.7-0.1-5.5-0.1c-6.5,0-20.1,0-20.7,8.5c-0.1,2.3,0.6,4.3,2.2,5.9c3.7,3.4,11.2,3.9,18.1,3.9c3.2,0,6.5-0.1,9.7-0.2
					s6.2-0.2,9-0.2c2,0,4.3,0,6.8,0c5.3,0,11.1,0,16,0c8.5-0.1,16.4-0.1,17-7.8C-190.9-112.7-196.7-113.9-200.9-114.9z"/>
				<path class="st1" d="M-212.1-92.5L-212.1-92.5c-2.2-0.6-5.9-0.9-12.6-0.9c-2.5,0-5.2,0-7.8,0.1c-2.1,0-4.1,0-6,0
					c-8.3,0-18.5,0.1-19.2,7.8c-0.2,2.5,0.5,4.6,2.1,6c3,2.7,8.3,3.3,15.8,3.3c1.4,0,2.7,0,4.1,0s2.8,0,4.3,0c1.6,0,3.3,0,5.1,0.1
					c1.7,0,3.4,0.1,5.1,0.1c5.3,0,16.4,0,16.9-8C-203.8-90.3-208.4-91.5-212.1-92.5z"/>
			</g>
			<g>
				<path class="st1" d="M-128.2-308.1c0,0-0.4-3.7-1-7.4c-0.4-2.2-11.8-13.8-31.4-30.9v28.1c3.3,3,6.8,5.9,10.1,8.9
					c1,0.9,1.7,2.2,1.8,3.6l0,0c2.1,29.3-11.8,47.7-25.3,65.4c-0.9,1.2-1.8,2.5-2.7,3.6c-1.6,2.1-3.2,4.2-4.8,6.3
					c-13.4,17.6-26.2,34.4-30.3,58.8c-0.5,2.6-2.6,4.6-5.3,4.6h-15.2l0,0h-15c-2.6,0-4.8-2-5.3-4.6c-4.1-24.4-16.9-41.2-30.3-58.8
					c-1.6-2.1-3.2-4.2-4.8-6.3c-0.9-1.2-1.8-2.5-2.7-3.6c-13.4-17.7-27.4-36.1-25.3-65.4l0,0c0.1-1.4,0.7-2.7,1.8-3.6l81.7-71.3l0,0
					l0,0c13.8,12,27.5,24,41.3,36v-27.1c-12.3-10-26.1-20.8-41.3-32.3v0.1c-61.5,46.3-102.3,84.3-103.1,88.7c-0.7,3.7-1,7.4-1,7.4
					c0,0.6-0.1,2.1-0.2,4.3c-0.1,3.7-0.1,7.5,0.2,11.3c2,26.2,15.2,44,28,61c1,1.4,2,2.7,3.1,4.1c1.8,2.6,3.9,5.2,6,7.9
					c4.6,5.9,9.4,12,13.8,19c7,11.1,14.2,26.1,13.2,32.7c-0.2,1.4-1.1,2.5-2.1,3.7c-1.8,2.2-4.1,5.1-2.8,10
					c1.7,6.5,9.9,6.5,17.9,6.5l0,0h27.2l0,0h27.2l0,0c7.9,0,16,0,17.9-6.5c1.4-4.9-1-7.8-2.8-10c-1-1.2-2-2.3-2.1-3.7
					c-1-6.7,6.2-21.6,13.2-32.7c4.4-7,9.2-13.2,13.8-19c2.1-2.7,4.2-5.3,6-7.9c1-1.4,2-2.7,3.1-4.1c12.7-17.1,25.9-34.7,28.2-72.4
					C-127.8-305.9-128-307.5-128.2-308.1z"/>
				<path class="st1" d="M-160.6-390.4H-191v18.5c11.6,9.4,21.8,18,30.4,25.5V-390.4z"/>
				<path class="st1" d="M-160.6-291.5v-28.1c-8.6-7.5-18.9-16.1-30.4-25.5v27.1C-180.9-309.2-170.8-300.3-160.6-291.5z"/>
			</g>
		</g>
		<g>
			<g>
				<rect x="-257.7" y="-318.3" class="st1" width="20.5" height="20.5"/>
				<rect x="-227.5" y="-318.3" class="st1" width="20.5" height="20.5"/>
			</g>
			<g>
				<rect x="-257.7" y="-288.3" class="st1" width="20.5" height="20.5"/>
				<rect x="-227.5" y="-288.3" class="st1" width="20.5" height="20.5"/>
			</g>
		</g>
	</g>
</g>
<g id="Logotype">
	<g>
		<path class="st1" d="M-1519.3,57.9h28v178.4h-28V57.9z"/>
		<path class="st1" d="M-1470.8,57.9h44.3c28,0,41.7,15.6,41.7,44.1v90.2c0,28.5-13.7,44.1-41.7,44.1h-44.3V57.9z M-1442.7,83.4
			v127.4h15.8c8.9,0,14.3-4.6,14.3-17.3v-92.8c0-12.7-5.3-17.3-14.3-17.3C-1426.9,83.4-1442.7,83.4-1442.7,83.4z"/>
		<path class="st1" d="M-1338.8,133.2h38.4v25.5h-38.4V211h48.5v25.5h-76.5V58.1h76.5v25.5h-48.5V133.2z"/>
		<path class="st1" d="M-1273,57.9h28v178.4h-28V57.9z"/>
		<path class="st1" d="M-1134.1,236.3h-28.3l-4.8-32.3h-34.4l-4.8,32.3h-25.7l28.5-178.4h41.1L-1134.1,236.3z M-1197.9,179.8h27
			l-13.5-90.2L-1197.9,179.8z"/>
		<path class="st1" d="M-1083.2,56c27.2,0,41.3,16.2,41.3,44.9v5.7h-26.6v-7.4c0-12.7-5.1-17.5-13.9-17.5s-13.9,4.8-13.9,17.5
			c0,36.7,54.8,43.6,54.8,94.5c0,28.5-14.3,44.9-41.7,44.9s-41.7-16.2-41.7-44.9v-11h26.6v12.7c0,12.7,5.7,17.3,14.5,17.3
			c8.9,0,14.5-4.6,14.5-17.3c0-36.7-54.8-43.6-54.8-94.5C-1124.6,72.2-1110.4,56-1083.2,56z"/>
		<path class="st1" d="M-946.6,241.3c-28.9,0-44.7-17.1-44.7-47.9v-92.8c0-30.8,15.8-47.9,44.7-47.9s44.7,17.1,44.7,47.9V121h-32.5
			V98.8c0-12.9-6.1-14.5-11.6-14.5c-5.3,0-11.6,1.7-11.6,14.5v96.6c0,12.7,5.9,14.3,11.6,14.3c5.7,0,11.6-1.7,11.6-14.3v-28.5h32.5
			v26.8C-901.9,224.5-917.7,241.3-946.6,241.3z M-946.6,59c-25.3,0-38.8,14.5-38.8,42v92.8c0,27.4,13.5,42,38.8,42
			s38.8-14.5,38.8-42V173h-20.5v22.4c0,16.9-9.5,20.2-17.5,20.2s-17.5-3.6-17.5-20.2V99c0-17.1,9.5-20.7,17.5-20.7
			s17.5,3.6,17.5,20.7v16h20.5v-14.3C-907.8,73.5-921.3,59-946.6,59z"/>
		<path class="st1" d="M-847.5,241.3c-28.9,0-45.5-17.5-45.5-47.9v-92.8c0-30.4,16.7-47.9,45.5-47.9c28.9,0,45.5,17.5,45.5,47.9
			v92.8C-802,224.1-818.6,241.3-847.5,241.3z M-847.5,59c-25.5,0-39.6,15-39.6,42v92.8c0,27,14.1,42,39.6,42s39.6-15,39.6-42V101
			C-808.1,73.7-822,59-847.5,59z M-847.5,215.8c-8,0-17.5-3.6-17.5-20.7V98.8c0-17.1,9.5-20.7,17.5-20.7s17.5,3.6,17.5,20.7v96.6
			C-830,212.2-839.5,215.8-847.5,215.8z M-847.5,84.5c-5.3,0-11.6,1.7-11.6,14.5v96.4c0,12.9,6.1,14.5,11.6,14.5
			c5.3,0,11.6-1.7,11.6-14.5V99C-836.1,86.2-842.2,84.5-847.5,84.5z"/>
		<path class="st1" d="M-666.4,239.4h-32.5v-91.3l-13.7,91.3h-31.6l-15.4-92.8v92.8H-790V55.2h44.3l17.9,110.3l16.7-110.3h44.5
			v184.3h0.2V239.4z M-693,233.3h20.5V60.9H-706l-21.5,143l-23.2-143h-33.5v172.5h18.6V110.2l5.9-0.4l20.5,123.6h21.3l19-125.5
			l5.9,0.4V233.3L-693,233.3L-693,233.3z"/>
		<path class="st1" d="M-517.9,239.4h-35.2l-0.8-2.3c-1.5-4.6-2.5-7.8-2.5-22.6v-28c0-16.4-5.7-19.6-15.4-19.6h-6.7v72.5h-33.9V55.2
			h45.3c29.9,0,44.5,14.3,44.5,44.1v13.9c0,17.3-5.1,29.1-15.2,36.1c13.7,8.9,15.4,25.7,15.4,38.2V215c0,8,0.2,14.3,2.7,20.5
			L-517.9,239.4z M-548.7,233.3h22.1c-1.7-5.7-1.9-11.6-1.9-18.8v-27.6c0-19.4-5.3-30.4-16.9-35.2l-6.1-2.5l6.1-3
			c11.2-5.3,16.7-16.2,16.7-33.5V98.8c0-26.4-11.8-38-38.6-38h-39.2v172.5h22.1v-72.5h12.7c14.8,0,21.3,8,21.3,25.7v28
			C-550.6,226.2-549.8,230-548.7,233.3z M-570.7,141.2h-13.9V80.5h16.4c11.6,0,17.3,7,17.3,21.3v17.5
			C-550.8,134-557.2,141.2-570.7,141.2z M-578.5,135.3h8c8.2,0,13.9-2.7,13.9-15.8V102c0-12.7-4.4-15.4-11.4-15.4h-10.5V135.3
			L-578.5,135.3z"/>
		<path class="st1" d="M-427.7,239.4h-82.4V55.2h82.4v31.4h-48.5v43.6h38.4v31.4h-38.4v46.2h48.5V239.4z M-504.2,233.3h70.6v-19.4
			h-48.5v-58.2h38.4v-19.4h-38.4V80.7h48.5V61.3H-504v172.1h-0.2V233.3z"/>
		<path class="st1" d="M-336.2,239.4h-80.1V55.2h33.9V208h46.2V239.4z M-410.4,233.3h68.1v-19.4h-46.2V61.1h-21.9V233.3z"/>
		<path class="st1" d="M-247.6,239.4H-330V55.2h82.4v31.4h-48.5v43.6h38.4v31.4h-38.4v46.2h48.5V239.4z M-324,233.3h70.4v-19.4H-302
			v-58.2h38.4v-19.4H-302V80.7h48.5V61.3H-324V233.3z"/>
		<path class="st1" d="M-168.8,239.4h-47l-0.4-2.5l-28-181.8h34.4l18.8,128l18.8-128h31.8L-168.8,239.4z M-210.5,233.3h36.7
			l26.6-172.5h-19.6l-24,163l-24-163h-22.1L-210.5,233.3z"/>
		<path class="st1" d="M-90.8,241.3c-28.9,0-45.5-17.5-45.5-47.9v-92.8c0-30.4,16.7-47.9,45.5-47.9c28.9,0,45.5,17.5,45.5,47.9v92.8
			C-45.2,224.1-61.9,241.3-90.8,241.3z M-90.8,59c-25.5,0-39.6,15-39.6,42v92.8c0,27,14.1,42,39.6,42s39.6-15,39.6-42V101
			C-51.1,73.7-65.2,59-90.8,59z M-90.8,215.8c-8,0-17.5-3.6-17.5-20.7V98.8c0-17.1,9.5-20.7,17.5-20.7s17.5,3.6,17.5,20.7v96.6
			C-73.3,212.2-82.7,215.8-90.8,215.8z M-90.8,84.5c-5.3,0-11.6,1.7-11.6,14.5v96.4c0,12.9,6.1,14.5,11.6,14.5
			c5.3,0,11.6-1.7,11.6-14.5V99C-79.2,86.2-85.5,84.5-90.8,84.5z"/>
	</g>
</g>
<g id="description">
	<g>
		<g>
			<path class="st1" d="M-1508.7,628.6h15.4v98h-15.4V628.6z"/>
			<path class="st1" d="M-1468.4,655.5v70.8h-13.7v-98h19.4l15.8,58.6v-58.6h13.7v98h-15.8L-1468.4,655.5z"/>
			<path class="st1" d="M-1399.1,708.5l11.8-79.9h14.1l-15.2,98h-23l-15.2-98h15.6L-1399.1,708.5z"/>
			<path class="st1" d="M-1350.8,669.9h21.1v13.9h-21.1v28.7h26.8v13.9h-42.2v-98h42.2v13.9h-26.6v27.6L-1350.8,669.9L-1350.8,669.9
				z"/>
			<path class="st1" d="M-1293.9,627.5c15,0,22.8,8.9,22.8,24.7v3.2h-14.5v-4c0-7-2.7-9.7-7.6-9.7s-7.6,2.7-7.6,9.7
				c0,20.2,30.2,23.8,30.2,51.9c0,15.6-7.8,24.7-23,24.7s-23-8.9-23-24.7v-6.1h14.5v7c0,7,3.2,9.5,8,9.5s8-2.5,8-9.5
				c0-20.2-30.2-23.8-30.2-51.9C-1316.6,636.4-1308.8,627.5-1293.9,627.5z"/>
			<path class="st1" d="M-1266.7,628.6h47.7v13.9h-16v83.9h-15.4v-83.9h-16v-13.9H-1266.7z"/>
			<path class="st1" d="M-1212.5,628.6h15.4v98h-15.4V628.6z"/>
			<path class="st1" d="M-1153.2,698.1l10.5-69.6h21.5v98h-14.5v-70.2l-10.5,70.2h-14.5l-11.4-69.2v69.2h-13.5v-98h21.5
				L-1153.2,698.1z"/>
			<path class="st1" d="M-1094.8,669.9h21.1v13.9h-21.1v28.7h26.6v13.9h-42v-98h42v13.9h-26.6V669.9z"/>
			<path class="st1" d="M-1045.1,655.5v70.8h-13.9v-98h19.4l15.8,58.6v-58.6h13.7v98h-15.8L-1045.1,655.5z"/>
			<path class="st1" d="M-1003.3,628.6h47.7v13.9h-16.2v83.9h-15.4v-83.9h-16L-1003.3,628.6L-1003.3,628.6z"/>
			<path class="st1" d="M-950.4,652c0-15.6,8.2-24.7,23.4-24.7s23.4,8.9,23.4,24.7v51c0,15.6-8.2,24.7-23.4,24.7
				s-23.4-8.9-23.4-24.7V652z M-935,704c0,7,3.2,9.7,8,9.7s8-2.7,8-9.7v-52.9c0-7-3.2-9.7-8-9.7s-8,2.7-8,9.7V704z"/>
			<path class="st1" d="M-873,627.5c15,0,22.8,8.9,22.8,24.7v3.2h-14.5v-4c0-7-2.7-9.7-7.6-9.7s-7.6,2.7-7.6,9.7
				c0,20.2,30.2,23.8,30.2,51.9c0,15.6-7.8,24.7-23,24.7s-23.2-9.3-23.2-24.9V697h14.5v7c0,7,3.2,9.5,8,9.5s8-2.5,8-9.5
				c0-20.2-30.2-23.8-30.2-51.9C-895.6,636.4-888,627.5-873,627.5z"/>
			<path class="st1" d="M-819.7,628.6h15.4v98h-15.4V628.6z"/>
			<path class="st1" d="M-760.4,698.1l10.5-69.6h21.5v98h-14.5v-70.2l-10.5,70.2H-768l-11.4-69.2v69.2h-13.5v-98h21.5L-760.4,698.1z
				"/>
			<path class="st1" d="M-718.7,652c0-15.6,8.2-24.7,23.4-24.7s23.4,8.9,23.4,24.7v51c0,15.6-8.2,24.7-23.4,24.7
				s-23.4-8.9-23.4-24.7V652z M-703.3,704c0,7,3.2,9.7,8,9.7s8-2.7,8-9.7v-52.9c0-7-3.2-9.7-8-9.7s-8,2.7-8,9.7V704z"/>
			<path class="st1" d="M-616,651.1v3.6c0,10.1-3.2,16.4-9.9,19.8c8.2,3.2,11.4,10.5,11.4,21.1v8c0,15.2-8,23.2-23.4,23.2h-24v-98
				h23.2C-622.7,628.6-616,635.9-616,651.1z M-646.6,642.5v25.9h6.1c5.7,0,9.3-2.5,9.3-10.3v-5.5c0-7-2.3-10.1-7.8-10.1
				L-646.6,642.5L-646.6,642.5z M-646.6,682.3v30.2h8.9c5.3,0,8-2.3,8-9.7v-8.4c0-9.1-3-11.8-9.9-11.8h-7V682.3z"/>
			<path class="st1" d="M-605.2,628.6h15.4v98h-15.4V628.6z"/>
			<path class="st1" d="M-578.7,628.6h15.4v83.9h25.3v13.9h-40.7V628.6z"/>
			<path class="st1" d="M-531.2,628.6h15.4v98h-15.4V628.6z"/>
			<path class="st1" d="M-454.7,726.4h-15.6l-2.7-17.7h-19l-2.7,17.7h-14.1l15.6-98h22.6L-454.7,726.4z M-489.9,695.4h14.8
				l-7.4-49.5L-489.9,695.4z"/>
			<path class="st1" d="M-415.5,726.4c-0.8-2.5-1.5-4-1.5-12V699c0-9.1-3.2-12.4-10.1-12.4h-5.3v39.8h-15.4v-98h23.2
				c16,0,22.8,7.4,22.8,22.6v7.6c0,10.1-3.2,16.7-10.1,19.8c7.6,3.2,10.1,10.5,10.1,20.9v15.2c0,4.8,0.2,8.2,1.7,11.8h-15.4
				L-415.5,726.4L-415.5,726.4z M-432.4,642.5v30.2h6.1c5.7,0,9.3-2.5,9.3-10.3v-9.7c0-7-2.3-10.1-7.8-10.1h-7.6V642.5z"/>
			<path class="st1" d="M-391.5,628.6h15.4v98h-15.4V628.6z"/>
			<path class="st1" d="M-366.2,652c0-15.6,8.2-24.7,23.4-24.7s23.4,8.9,23.4,24.7v51c0,15.6-8.2,24.7-23.4,24.7
				s-23.4-8.9-23.4-24.7V652z M-350.8,704c0,7,3.2,9.7,8,9.7s8-2.7,8-9.7v-52.9c0-7-3.2-9.7-8-9.7s-8,2.7-8,9.7V704z"/>
			<path class="st1" d="M-288.8,627.5c15,0,22.8,8.9,22.8,24.7v3.2h-14.5v-4c0-7-2.7-9.7-7.6-9.7c-4.8,0-7.6,2.7-7.6,9.7
				c0,20.2,30.2,23.8,30.2,51.9c0,15.6-7.8,24.7-23,24.7s-23-8.9-23-24.7v-6.1h14.5v7c0,7,3.2,9.5,8,9.5s8-2.5,8-9.5
				c0-20.2-30.2-23.8-30.2-51.9C-311.3,636.4-303.7,627.5-288.8,627.5z"/>
			<path class="st1" d="M-257.8,726.4v-14.8h14.8v13.3l-6.7,15.6h-6.3l4-13.9h-5.7v-0.2H-257.8z"/>
			<path class="st1" d="M-210.1,628.6h15.4v83.9h25.3v13.9h-40.7V628.6z"/>
			<path class="st1" d="M-162.7,628.6h24.2c15.4,0,23,8.4,23,24.2v49.5c0,15.6-7.6,24.2-23,24.2h-24.2V628.6z M-147.3,642.5v70h8.6
				c4.8,0,7.8-2.5,7.8-9.5v-51c0-7-3-9.5-7.8-9.5H-147.3z"/>
			<path class="st1" d="M-55.8,726.4h-15.6l-2.7-17.7h-19l-2.7,17.7H-110l15.6-98h22.8L-55.8,726.4z M-91,695.4h14.8l-7.4-49.5
				L-91,695.4z"/>
		</g>
		<g>
			<path class="st1" d="M-1519.2,367.3h28v178.4h-28V367.3z"/>
			<path class="st1" d="M-1470.8,367.3h44.3c28,0,41.7,15.6,41.7,44.1v90.2c0,28.5-13.7,44.1-41.7,44.1h-44.3V367.3z M-1442.7,392.8
				v127.3h15.8c8.9,0,14.3-4.6,14.3-17.3V410c0-12.7-5.3-17.3-14.3-17.3L-1442.7,392.8L-1442.7,392.8z"/>
			<path class="st1" d="M-1338.8,442.6h38.4v25.5h-38.4v52.3h48.5v25.5h-76.5V367.5h76.5V393h-48.5V442.6z"/>
			<path class="st1" d="M-1273,367.3h28v178.4h-28V367.3z"/>
			<path class="st1" d="M-1134,545.7h-28.3l-4.8-32.3h-34.4l-4.8,32.3h-25.7l28.5-178.4h41.1L-1134,545.7z M-1197.9,489.2h27
				l-13.5-90.2L-1197.9,489.2z"/>
			<path class="st1" d="M-1083.2,365.4c27.2,0,41.3,16.2,41.3,44.9v5.7h-26.6v-7.4c0-12.7-5.1-17.5-13.9-17.5s-13.9,4.8-13.9,17.5
				c0,36.7,54.8,43.6,54.8,94.5c0,28.5-14.3,44.9-41.7,44.9s-41.7-16.2-41.7-44.9v-11h26.6v12.7c0,12.7,5.7,17.3,14.5,17.3
				c8.9,0,14.5-4.6,14.5-17.3c0-36.7-54.8-43.6-54.8-94.5C-1124.6,381.7-1110.4,365.4-1083.2,365.4z"/>
			<path class="st1" d="M-946.6,550.8c-28.9,0-44.7-17.1-44.7-47.9v-92.8c0-30.8,15.8-47.9,44.7-47.9s44.7,17.1,44.7,47.9v20.2
				h-32.5v-22.1c0-12.9-6.1-14.5-11.6-14.5c-5.3,0-11.6,1.7-11.6,14.5v96.6c0,12.7,5.9,14.3,11.6,14.3s11.6-1.7,11.6-14.3v-28.5
				h32.5v26.8C-901.9,533.9-917.7,550.8-946.6,550.8z M-946.6,368.4c-25.3,0-38.8,14.5-38.8,42v92.8c0,27.4,13.5,42,38.8,42
				s38.8-14.5,38.8-42v-20.7h-20.5v22.3c0,16.9-9.5,20.2-17.5,20.2s-17.5-3.6-17.5-20.2v-96.4c0-17.1,9.5-20.7,17.5-20.7
				s17.5,3.6,17.5,20.7v16h20.5v-14.3C-907.8,382.9-921.3,368.4-946.6,368.4z"/>
			<path class="st1" d="M-847.5,550.8c-28.9,0-45.5-17.5-45.5-47.9v-92.8c0-30.4,16.7-47.9,45.5-47.9c28.9,0,45.5,17.5,45.5,47.9
				v92.8C-802,533.5-818.6,550.8-847.5,550.8z M-847.5,368.4c-25.5,0-39.6,15-39.6,42v92.8c0,27,14.1,42,39.6,42s39.6-15,39.6-42
				v-92.8C-808.1,383.1-822,368.4-847.5,368.4z M-847.5,525.2c-8,0-17.5-3.6-17.5-20.7v-96.4c0-17.1,9.5-20.7,17.5-20.7
				s17.5,3.6,17.5,20.7v96.6C-830,521.7-839.5,525.2-847.5,525.2z M-847.5,393.9c-5.3,0-11.6,1.7-11.6,14.5v96.4
				c0,12.9,6.1,14.5,11.6,14.5c5.3,0,11.6-1.7,11.6-14.5v-96.4C-836.1,395.6-842.2,393.9-847.5,393.9z"/>
			<path class="st1" d="M-666.4,548.9h-32.5v-91.3l-13.7,91.3h-31.6l-15.4-92.8v92.8H-790V364.6h44.3l17.9,110.3l16.7-110.3h44.5
				v184.3H-666.4z M-693,542.7h20.5V370.3H-706l-21.5,143l-23.2-143h-33.5v172.5h18.6V419.6l5.9-0.4l20.5,123.6h21.3l19-125.5
				l5.9,0.4V542.7L-693,542.7L-693,542.7z"/>
			<path class="st1" d="M-518,548.9h-35.2l-0.8-2.3c-1.5-4.6-2.5-7.8-2.5-22.6v-28c0-16.4-5.7-19.6-15.4-19.6h-6.7v72.5h-33.9V364.6
				h45.3c29.9,0,44.5,14.3,44.5,44.1v13.9c0,17.3-5.1,29.1-15.2,36.1c13.7,8.9,15.4,25.7,15.4,38.2v27.6c0,8,0.2,14.3,2.7,20.5
				L-518,548.9z M-548.7,542.7h22.1c-1.7-5.7-1.9-11.6-1.9-18.8v-27.6c0-19.4-5.3-30.4-16.9-35.2l-6.1-2.5l6.1-3
				c11.2-5.3,16.7-16.2,16.7-33.5v-13.9c0-26.4-11.8-38-38.6-38h-39.2v172.5h22.1v-72.5h12.7c14.8,0,21.3,8,21.3,25.7v28
				C-550.6,535.6-549.8,539.4-548.7,542.7z M-570.7,450.6h-13.9v-60.7h16.4c11.6,0,17.3,7,17.3,21.3v17.5
				C-550.9,443.4-557.2,450.6-570.7,450.6z M-578.5,444.7h8c8.2,0,13.9-2.7,13.9-15.8v-17.5c0-12.7-4.4-15.4-11.4-15.4h-10.5V444.7
				L-578.5,444.7z"/>
			<path class="st1" d="M-427.7,548.9h-82.4V364.6h82.4V396h-48.5v43.6h38.4V471h-38.4v46.2h48.5V548.9z M-504.3,542.7h70.6v-19.4
				h-48.5v-58.2h38.4v-19.4h-38.4V390h48.5v-19.4H-504v172h-0.3V542.7z"/>
			<path class="st1" d="M-336.2,548.9h-80.1V364.6h33.9v152.9h46.2V548.9z M-410.4,542.7h68.1v-19.4h-46.2V370.5h-21.9V542.7z"/>
			<path class="st1" d="M-247.7,548.9h-82.4V364.6h82.4V396h-48.5v43.6h38.4V471h-38.4v46.2h48.5L-247.7,548.9L-247.7,548.9z
				 M-324,542.7h70.4v-19.4h-48.5v-58.2h38.4v-19.4h-38.4V390h48.5v-19.4H-324V542.7z"/>
			<path class="st1" d="M-168.8,548.9h-47l-0.4-2.5l-28-181.7h34.4l18.8,128l18.8-128h31.8L-168.8,548.9z M-210.6,542.7h36.7
				l26.6-172.5h-19.6l-24,163l-24-163H-237L-210.6,542.7z"/>
			<path class="st1" d="M-90.8,550.8c-28.9,0-45.5-17.5-45.5-47.9v-92.8c0-30.4,16.7-47.9,45.5-47.9c28.9,0,45.5,17.5,45.5,47.9
				v92.8C-45.3,533.5-61.9,550.8-90.8,550.8z M-90.8,368.4c-25.5,0-39.6,15-39.6,42v92.8c0,27,14.1,42,39.6,42s39.6-15,39.6-42
				v-92.8C-51.2,383.1-65.3,368.4-90.8,368.4z M-90.8,525.2c-8,0-17.5-3.6-17.5-20.7v-96.4c0-17.1,9.5-20.7,17.5-20.7
				s17.5,3.6,17.5,20.7v96.6C-73.3,521.7-82.8,525.2-90.8,525.2z M-90.8,393.9c-5.3,0-11.6,1.7-11.6,14.5v96.4
				c0,12.9,6.1,14.5,11.6,14.5c5.3,0,11.6-1.7,11.6-14.5v-96.4C-79.2,395.6-85.5,393.9-90.8,393.9z"/>
		</g>
	</g>
</g>
<g id="dark_x5F_Logotype">
	<g>
		<path class="st3" d="M25.2,57.9h28v178.4h-28V57.9z"/>
		<path class="st3" d="M73.7,57.9H118c28,0,41.7,15.6,41.7,44.1v90.2c0,28.5-13.7,44.1-41.7,44.1H73.7V57.9z M101.8,83.4v127.4h15.8
			c8.9,0,14.3-4.6,14.3-17.3v-92.8c0-12.7-5.3-17.3-14.3-17.3C117.6,83.4,101.8,83.4,101.8,83.4z"/>
		<path class="st3" d="M205.7,133.2h38.4v25.5h-38.4V211h48.5v25.5h-76.5V58.1h76.5v25.5h-48.5L205.7,133.2L205.7,133.2z"/>
		<path class="st3" d="M271.5,57.9h28v178.4h-28V57.9z"/>
		<path class="st3" d="M410.4,236.3h-28.3l-4.8-32.3H343l-4.8,32.3h-25.7L341,57.9h41L410.4,236.3z M346.6,179.8h27l-13.5-90.2
			L346.6,179.8z"/>
		<path class="st3" d="M461.3,56c27.2,0,41.3,16.2,41.3,44.9v5.7H476v-7.4c0-12.7-5.1-17.5-13.9-17.5s-13.9,4.8-13.9,17.5
			c0,36.7,54.8,43.6,54.8,94.5c0,28.5-14.3,44.9-41.7,44.9c-27.4,0-41.7-16.2-41.7-44.9v-11h26.6v12.7c0,12.7,5.7,17.3,14.5,17.3
			c8.9,0,14.5-4.6,14.5-17.3c0-36.7-54.8-43.6-54.8-94.5C419.9,72.2,434.1,56,461.3,56z"/>
		<path class="st3" d="M597.9,241.3c-28.9,0-44.7-17.1-44.7-47.9v-92.8c0-30.8,15.8-47.9,44.7-47.9s44.7,17.1,44.7,47.9V121h-32.5
			V98.8c0-12.9-6.1-14.5-11.6-14.5c-5.3,0-11.6,1.7-11.6,14.5v96.6c0,12.7,5.9,14.3,11.6,14.3c5.7,0,11.6-1.7,11.6-14.3v-28.5h32.5
			v26.8C642.6,224.5,626.8,241.3,597.9,241.3z M597.9,59c-25.3,0-38.8,14.5-38.8,42v92.8c0,27.4,13.5,42,38.8,42s38.8-14.5,38.8-42
			V173h-20.5v22.4c0,16.9-9.5,20.2-17.5,20.2s-17.5-3.6-17.5-20.2V99c0-17.1,9.5-20.7,17.5-20.7s17.5,3.6,17.5,20.7v16h20.5v-14.3
			C636.7,73.5,623.2,59,597.9,59z"/>
		<path class="st3" d="M697,241.3c-28.9,0-45.5-17.5-45.5-47.9v-92.8c0-30.4,16.7-47.9,45.5-47.9c28.9,0,45.5,17.5,45.5,47.9v92.8
			C742.5,224.1,725.9,241.3,697,241.3z M697,59c-25.5,0-39.6,15-39.6,42v92.8c0,27,14.1,42,39.6,42s39.6-15,39.6-42V101
			C736.4,73.7,722.5,59,697,59z M697,215.8c-8,0-17.5-3.6-17.5-20.7V98.8c0-17.1,9.5-20.7,17.5-20.7s17.5,3.6,17.5,20.7v96.6
			C714.5,212.2,705,215.8,697,215.8z M697,84.5c-5.3,0-11.6,1.7-11.6,14.5v96.4c0,12.9,6.1,14.5,11.6,14.5c5.3,0,11.6-1.7,11.6-14.5
			V99C708.4,86.2,702.3,84.5,697,84.5z"/>
		<path class="st3" d="M878.1,239.4h-32.5v-91.3l-13.7,91.3h-31.6l-15.4-92.8v92.8h-30.4V55.2h44.3l17.9,110.3l16.7-110.3h44.5
			v184.3h0.2V239.4z M851.5,233.3H872V60.9h-33.5l-21.5,143l-23.2-143h-33.5v172.5h18.6V110.2l5.9-0.4l20.5,123.6h21.3l19-125.5
			l5.9,0.4V233.3L851.5,233.3L851.5,233.3z"/>
		<path class="st3" d="M1026.6,239.4h-35.2l-0.8-2.3c-1.5-4.6-2.5-7.8-2.5-22.6v-28c0-16.4-5.7-19.6-15.4-19.6H966v72.5h-33.9V55.2
			h45.3c29.9,0,44.5,14.3,44.5,44.1v13.9c0,17.3-5.1,29.1-15.2,36.1c13.7,8.9,15.4,25.7,15.4,38.2V215c0,8,0.2,14.3,2.7,20.5
			L1026.6,239.4z M995.8,233.3h22.1c-1.7-5.7-1.9-11.6-1.9-18.8v-27.6c0-19.4-5.3-30.4-16.9-35.2l-6.1-2.5l6.1-3
			c11.2-5.3,16.7-16.2,16.7-33.5V98.8c0-26.4-11.8-38-38.6-38H938v172.5h22.1v-72.5h12.7c14.8,0,21.3,8,21.3,25.7v28
			C993.9,226.2,994.7,230,995.8,233.3z M973.8,141.2h-13.9V80.5h16.4c11.6,0,17.3,7,17.3,21.3v17.5
			C993.7,134,987.3,141.2,973.8,141.2z M966,135.3h8c8.2,0,13.9-2.7,13.9-15.8V102c0-12.7-4.4-15.4-11.4-15.4H966V135.3L966,135.3z"
			/>
		<path class="st3" d="M1116.8,239.4h-82.4V55.2h82.4v31.4h-48.5v43.6h38.4v31.4h-38.4v46.2h48.5V239.4z M1040.3,233.3h70.6v-19.4
			h-48.5v-58.2h38.4v-19.4h-38.4V80.7h48.5V61.3h-70.4v172.1h-0.2V233.3z"/>
		<path class="st3" d="M1208.3,239.4h-80.1V55.2h33.9V208h46.2V239.4z M1134.1,233.3h68.1v-19.4H1156V61.1h-21.9V233.3z"/>
		<path class="st3" d="M1296.9,239.4h-82.4V55.2h82.4v31.4h-48.5v43.6h38.4v31.4h-38.4v46.2h48.5V239.4z M1220.5,233.3h70.4v-19.4
			h-48.5v-58.2h38.4v-19.4h-38.4V80.7h48.5V61.3h-70.4V233.3z"/>
		<path class="st3" d="M1375.7,239.4h-47l-0.4-2.5l-28-181.8h34.4l18.8,128l18.8-128h31.8L1375.7,239.4z M1334,233.3h36.7
			l26.6-172.5h-19.6l-24,163l-24-163h-22.1L1334,233.3z"/>
		<path class="st3" d="M1453.7,241.3c-28.9,0-45.5-17.5-45.5-47.9v-92.8c0-30.4,16.7-47.9,45.5-47.9c28.9,0,45.5,17.5,45.5,47.9
			v92.8C1499.3,224.1,1482.6,241.3,1453.7,241.3z M1453.7,59c-25.5,0-39.6,15-39.6,42v92.8c0,27,14.1,42,39.6,42s39.6-15,39.6-42
			V101C1493.4,73.7,1479.3,59,1453.7,59z M1453.7,215.8c-8,0-17.5-3.6-17.5-20.7V98.8c0-17.1,9.5-20.7,17.5-20.7s17.5,3.6,17.5,20.7
			v96.6C1471.2,212.2,1461.8,215.8,1453.7,215.8z M1453.7,84.5c-5.3,0-11.6,1.7-11.6,14.5v96.4c0,12.9,6.1,14.5,11.6,14.5
			c5.3,0,11.6-1.7,11.6-14.5V99C1465.3,86.2,1459,84.5,1453.7,84.5z"/>
	</g>
</g>
<g id="dark_x5F_description">
	<g>
		<g>
			<path class="st3" d="M35.8,628.6h15.4v98H35.8V628.6z"/>
			<path class="st3" d="M76.1,655.5v70.8H62.4v-98h19.4L97.6,687v-58.6h13.7v98H95.5L76.1,655.5z"/>
			<path class="st3" d="M145.4,708.5l11.8-79.9h14.1l-15.2,98h-23l-15.2-98h15.6L145.4,708.5z"/>
			<path class="st3" d="M193.7,669.9h21.1v13.9h-21.1v28.7h26.8v13.9h-42.2v-98h42.2v13.9h-26.6v27.6L193.7,669.9L193.7,669.9z"/>
			<path class="st3" d="M250.6,627.5c15,0,22.8,8.9,22.8,24.7v3.2h-14.5v-4c0-7-2.7-9.7-7.6-9.7s-7.6,2.7-7.6,9.7
				c0,20.2,30.2,23.8,30.2,51.9c0,15.6-7.8,24.7-23,24.7s-23-8.9-23-24.7v-6.1h14.5v7c0,7,3.2,9.5,8,9.5s8-2.5,8-9.5
				c0-20.2-30.2-23.8-30.2-51.9C227.9,636.4,235.7,627.5,250.6,627.5z"/>
			<path class="st3" d="M277.8,628.6h47.7v13.9h-16v83.9h-15.4v-83.9h-16v-13.9H277.8z"/>
			<path class="st3" d="M332,628.6h15.4v98H332V628.6z"/>
			<path class="st3" d="M391.3,698.1l10.5-69.6h21.5v98h-14.5v-70.2l-10.5,70.2h-14.5l-11.4-69.2v69.2h-13.5v-98h21.5L391.3,698.1z"
				/>
			<path class="st3" d="M449.7,669.9h21.1v13.9h-21.1v28.7h26.6v13.9h-42v-98h42v13.9h-26.6V669.9z"/>
			<path class="st3" d="M499.4,655.5v70.8h-13.9v-98h19.4l15.8,58.6v-58.6h13.7v98h-15.8L499.4,655.5z"/>
			<path class="st3" d="M541.2,628.6h47.7v13.9h-16.2v83.9h-15.4v-83.9h-16L541.2,628.6L541.2,628.6z"/>
			<path class="st3" d="M594.1,652c0-15.6,8.2-24.7,23.4-24.7s23.4,8.9,23.4,24.7v51c0,15.6-8.2,24.7-23.4,24.7s-23.4-8.9-23.4-24.7
				V652z M609.5,704c0,7,3.2,9.7,8,9.7s8-2.7,8-9.7v-52.9c0-7-3.2-9.7-8-9.7s-8,2.7-8,9.7V704z"/>
			<path class="st3" d="M671.5,627.5c15,0,22.8,8.9,22.8,24.7v3.2h-14.5v-4c0-7-2.7-9.7-7.6-9.7c-4.8,0-7.6,2.7-7.6,9.7
				c0,20.2,30.2,23.8,30.2,51.9c0,15.6-7.8,24.7-23,24.7s-23.2-9.3-23.2-24.9V697H663v7c0,7,3.2,9.5,8,9.5s8-2.5,8-9.5
				c0-20.2-30.2-23.8-30.2-51.9C648.9,636.4,656.5,627.5,671.5,627.5z"/>
			<path class="st3" d="M724.8,628.6h15.4v98h-15.4V628.6z"/>
			<path class="st3" d="M784.1,698.1l10.5-69.6h21.5v98h-14.5v-70.2L791,726.6h-14.5l-11.4-69.2v69.2h-13.5v-98h21.5L784.1,698.1z"
				/>
			<path class="st3" d="M825.8,652c0-15.6,8.2-24.7,23.4-24.7s23.4,8.9,23.4,24.7v51c0,15.6-8.2,24.7-23.4,24.7s-23.4-8.9-23.4-24.7
				V652z M841.2,704c0,7,3.2,9.7,8,9.7s8-2.7,8-9.7v-52.9c0-7-3.2-9.7-8-9.7s-8,2.7-8,9.7V704z"/>
			<path class="st3" d="M928.5,651.1v3.6c0,10.1-3.2,16.4-9.9,19.8c8.2,3.2,11.4,10.5,11.4,21.1v8c0,15.2-8,23.2-23.4,23.2h-24v-98
				h23.2C921.8,628.6,928.5,635.9,928.5,651.1z M897.9,642.5v25.9h6.1c5.7,0,9.3-2.5,9.3-10.3v-5.5c0-7-2.3-10.1-7.8-10.1
				L897.9,642.5L897.9,642.5z M897.9,682.3v30.2h8.9c5.3,0,8-2.3,8-9.7v-8.4c0-9.1-3-11.8-9.9-11.8h-7V682.3z"/>
			<path class="st3" d="M939.3,628.6h15.4v98h-15.4V628.6z"/>
			<path class="st3" d="M965.8,628.6h15.4v83.9h25.3v13.9h-40.7V628.6z"/>
			<path class="st3" d="M1013.3,628.6h15.4v98h-15.4L1013.3,628.6L1013.3,628.6z"/>
			<path class="st3" d="M1089.8,726.4h-15.6l-2.7-17.7h-19l-2.7,17.7h-14.1l15.6-98h22.6L1089.8,726.4z M1054.6,695.4h14.8
				l-7.4-49.5L1054.6,695.4z"/>
			<path class="st3" d="M1129,726.4c-0.8-2.5-1.5-4-1.5-12V699c0-9.1-3.2-12.4-10.1-12.4h-5.3v39.8h-15.4v-98h23.2
				c16,0,22.8,7.4,22.8,22.6v7.6c0,10.1-3.2,16.7-10.1,19.8c7.6,3.2,10.1,10.5,10.1,20.9v15.2c0,4.8,0.2,8.2,1.7,11.8H1129V726.4z
				 M1112.1,642.5v30.2h6.1c5.7,0,9.3-2.5,9.3-10.3v-9.7c0-7-2.3-10.1-7.8-10.1h-7.6V642.5z"/>
			<path class="st3" d="M1153,628.6h15.4v98H1153V628.6z"/>
			<path class="st3" d="M1178.3,652c0-15.6,8.2-24.7,23.4-24.7s23.4,8.9,23.4,24.7v51c0,15.6-8.2,24.7-23.4,24.7
				s-23.4-8.9-23.4-24.7V652z M1193.7,704c0,7,3.2,9.7,8,9.7s8-2.7,8-9.7v-52.9c0-7-3.2-9.7-8-9.7s-8,2.7-8,9.7V704z"/>
			<path class="st3" d="M1255.7,627.5c15,0,22.8,8.9,22.8,24.7v3.2H1264v-4c0-7-2.7-9.7-7.6-9.7c-4.8,0-7.6,2.7-7.6,9.7
				c0,20.2,30.2,23.8,30.2,51.9c0,15.6-7.8,24.7-23,24.7s-23-8.9-23-24.7v-6.1h14.5v7c0,7,3.2,9.5,8,9.5s8-2.5,8-9.5
				c0-20.2-30.2-23.8-30.2-51.9C1233.2,636.4,1240.8,627.5,1255.7,627.5z"/>
			<path class="st3" d="M1286.7,726.4v-14.8h14.8v13.3l-6.7,15.6h-6.3l4-13.9h-5.7v-0.2H1286.7z"/>
			<path class="st3" d="M1334.4,628.6h15.4v83.9h25.3v13.9h-40.7L1334.4,628.6L1334.4,628.6z"/>
			<path class="st3" d="M1381.8,628.6h24.2c15.4,0,23,8.4,23,24.2v49.5c0,15.6-7.6,24.2-23,24.2h-24.2V628.6z M1397.2,642.5v70h8.6
				c4.8,0,7.8-2.5,7.8-9.5v-51c0-7-3-9.5-7.8-9.5H1397.2z"/>
			<path class="st3" d="M1488.7,726.4h-15.6l-2.7-17.7h-19l-2.7,17.7h-14.1l15.6-98h22.8L1488.7,726.4z M1453.5,695.4h14.8
				l-7.4-49.5L1453.5,695.4z"/>
		</g>
		<g>
			<path class="st3" d="M25.3,367.3h28v178.4h-28V367.3z"/>
			<path class="st3" d="M73.7,367.3H118c28,0,41.7,15.6,41.7,44.1v90.2c0,28.5-13.7,44.1-41.7,44.1H73.7V367.3z M101.8,392.8v127.3
				h15.8c8.9,0,14.3-4.6,14.3-17.3V410c0-12.7-5.3-17.3-14.3-17.3L101.8,392.8L101.8,392.8z"/>
			<path class="st3" d="M205.7,442.6h38.4v25.5h-38.4v52.3h48.5v25.5h-76.5V367.5h76.5V393h-48.5L205.7,442.6L205.7,442.6z"/>
			<path class="st3" d="M271.5,367.3h28v178.4h-28V367.3z"/>
			<path class="st3" d="M410.5,545.7h-28.3l-4.8-32.3H343l-4.8,32.3h-25.7L341,367.3h41L410.5,545.7z M346.6,489.2h27L360.1,399
				L346.6,489.2z"/>
			<path class="st3" d="M461.3,365.4c27.2,0,41.3,16.2,41.3,44.9v5.7H476v-7.4c0-12.7-5.1-17.5-13.9-17.5s-13.9,4.8-13.9,17.5
				c0,36.7,54.8,43.6,54.8,94.5c0,28.5-14.3,44.9-41.7,44.9s-41.7-16.2-41.7-44.9v-11h26.6v12.7c0,12.7,5.7,17.3,14.5,17.3
				c8.9,0,14.5-4.6,14.5-17.3c0-36.7-54.8-43.6-54.8-94.5C419.9,381.7,434.1,365.4,461.3,365.4z"/>
			<path class="st3" d="M597.9,550.8c-28.9,0-44.7-17.1-44.7-47.9v-92.8c0-30.8,15.8-47.9,44.7-47.9s44.7,17.1,44.7,47.9v20.2h-32.5
				v-22.1c0-12.9-6.1-14.5-11.6-14.5c-5.3,0-11.6,1.7-11.6,14.5v96.6c0,12.7,5.9,14.3,11.6,14.3c5.7,0,11.6-1.7,11.6-14.3v-28.5
				h32.5v26.8C642.6,533.9,626.8,550.8,597.9,550.8z M597.9,368.4c-25.3,0-38.8,14.5-38.8,42v92.8c0,27.4,13.5,42,38.8,42
				s38.8-14.5,38.8-42v-20.7h-20.5v22.3c0,16.9-9.5,20.2-17.5,20.2s-17.5-3.6-17.5-20.2v-96.4c0-17.1,9.5-20.7,17.5-20.7
				s17.5,3.6,17.5,20.7v16h20.5v-14.3C636.7,382.9,623.2,368.4,597.9,368.4z"/>
			<path class="st3" d="M697,550.8c-28.9,0-45.5-17.5-45.5-47.9v-92.8c0-30.4,16.7-47.9,45.5-47.9c28.9,0,45.5,17.5,45.5,47.9v92.8
				C742.5,533.5,725.9,550.8,697,550.8z M697,368.4c-25.5,0-39.6,15-39.6,42v92.8c0,27,14.1,42,39.6,42s39.6-15,39.6-42v-92.8
				C736.4,383.1,722.5,368.4,697,368.4z M697,525.2c-8,0-17.5-3.6-17.5-20.7v-96.4c0-17.1,9.5-20.7,17.5-20.7s17.5,3.6,17.5,20.7
				v96.6C714.5,521.7,705,525.2,697,525.2z M697,393.9c-5.3,0-11.6,1.7-11.6,14.5v96.4c0,12.9,6.1,14.5,11.6,14.5
				c5.3,0,11.6-1.7,11.6-14.5v-96.4C708.4,395.6,702.3,393.9,697,393.9z"/>
			<path class="st3" d="M878.1,548.9h-32.5v-91.3l-13.7,91.3h-31.6l-15.4-92.8v92.8h-30.4V364.6h44.3l17.9,110.3l16.7-110.3h44.5
				v184.3H878.1z M851.5,542.7H872V370.3h-33.5l-21.5,143l-23.2-143h-33.5v172.5h18.6V419.6l5.9-0.4l20.5,123.6h21.3l19-125.5
				l5.9,0.4V542.7L851.5,542.7L851.5,542.7z"/>
			<path class="st3" d="M1026.5,548.9h-35.2l-0.8-2.3c-1.5-4.6-2.5-7.8-2.5-22.6v-28c0-16.4-5.7-19.6-15.4-19.6h-6.7v72.5H932V364.6
				h45.3c29.9,0,44.5,14.3,44.5,44.1v13.9c0,17.3-5.1,29.1-15.2,36.1c13.7,8.9,15.4,25.7,15.4,38.2v27.6c0,8,0.2,14.3,2.7,20.5
				L1026.5,548.9z M995.8,542.7h22.1c-1.7-5.7-1.9-11.6-1.9-18.8v-27.6c0-19.4-5.3-30.4-16.9-35.2l-6.1-2.5l6.1-3
				c11.2-5.3,16.7-16.2,16.7-33.5v-13.9c0-26.4-11.8-38-38.6-38H938v172.5h22.1v-72.5h12.7c14.8,0,21.3,8,21.3,25.7v28
				C993.9,535.6,994.7,539.4,995.8,542.7z M973.8,450.6h-13.9v-60.7h16.4c11.6,0,17.3,7,17.3,21.3v17.5
				C993.6,443.4,987.3,450.6,973.8,450.6z M966,444.7h8c8.2,0,13.9-2.7,13.9-15.8v-17.5c0-12.7-4.4-15.4-11.4-15.4H966V444.7
				L966,444.7z"/>
			<path class="st3" d="M1116.8,548.9h-82.4V364.6h82.4V396h-48.5v43.6h38.4V471h-38.4v46.2h48.5V548.9z M1040.2,542.7h70.6v-19.4
				h-48.5v-58.2h38.4v-19.4h-38.4V390h48.5v-19.4h-70.4v172h-0.2V542.7z"/>
			<path class="st3" d="M1208.3,548.9h-80.1V364.6h33.9v152.9h46.2V548.9z M1134.1,542.7h68.1v-19.4H1156V370.5h-21.9V542.7z"/>
			<path class="st3" d="M1296.8,548.9h-82.4V364.6h82.4V396h-48.5v43.6h38.4V471h-38.4v46.2h48.5V548.9z M1220.5,542.7h70.4v-19.4
				h-48.5v-58.2h38.4v-19.4h-38.4V390h48.5v-19.4h-70.4V542.7z"/>
			<path class="st3" d="M1375.7,548.9h-47l-0.4-2.5l-28-181.7h34.4l18.8,128l18.8-128h31.8L1375.7,548.9z M1333.9,542.7h36.7
				l26.6-172.5h-19.6l-24,163l-24-163h-22.1L1333.9,542.7z"/>
			<path class="st3" d="M1453.7,550.8c-28.9,0-45.5-17.5-45.5-47.9v-92.8c0-30.4,16.7-47.9,45.5-47.9c28.9,0,45.5,17.5,45.5,47.9
				v92.8C1499.2,533.5,1482.6,550.8,1453.7,550.8z M1453.7,368.4c-25.5,0-39.6,15-39.6,42v92.8c0,27,14.1,42,39.6,42
				s39.6-15,39.6-42v-92.8C1493.3,383.1,1479.2,368.4,1453.7,368.4z M1453.7,525.2c-8,0-17.5-3.6-17.5-20.7v-96.4
				c0-17.1,9.5-20.7,17.5-20.7s17.5,3.6,17.5,20.7v96.6C1471.2,521.7,1461.7,525.2,1453.7,525.2z M1453.7,393.9
				c-5.3,0-11.6,1.7-11.6,14.5v96.4c0,12.9,6.1,14.5,11.6,14.5c5.3,0,11.6-1.7,11.6-14.5v-96.4
				C1465.3,395.6,1459,393.9,1453.7,393.9z"/>
		</g>
	</g>
</g>
</svg>
