<?xml version="1.0" encoding="utf-8"?>
<!-- Generator: Adobe Illustrator 25.0.0, SVG Export Plug-In . SVG Version: 6.00 Build 0)  -->
<svg version="1.1" xmlns="http://www.w3.org/2000/svg" xmlns:xlink="http://www.w3.org/1999/xlink" x="0px" y="0px"
	 viewBox="0 0 283.5 283.5" style="enable-background:new 0 0 283.5 283.5;" xml:space="preserve">
<style type="text/css">
	.st0{display:none;}
	.st1{display:inline;}
	.st2{fill:#1D3B57;}
	.st3{display:inline;fill:#1D3B57;}
	.st4{fill:url(#SVGID_1_);}
</style>
<g id="Layer_1">
	<g class="st0">
		<g>
			<g class="st1">
				<path class="st2" d="M-113.6,267.6h9.7v61.8h-9.7V267.6z"/>
				<path class="st2" d="M-96.8,267.6h15.4c9.7,0,14.5,5.4,14.5,15.3v31.2c0,9.9-4.8,15.3-14.5,15.3h-15.4V267.6z M-87.1,276.4v44.1
					h5.5c3.1,0,4.9-1.6,4.9-6v-32.1c0-4.4-1.9-6-4.9-6H-87.1z"/>
				<path class="st2" d="M-51.1,293.7h13.3v8.8h-13.3v18.1h16.8v8.8h-26.5v-61.8h26.5v8.8h-16.8V293.7z"/>
				<path class="st2" d="M-28.3,267.6h9.7v61.8h-9.7V267.6z"/>
				<path class="st2" d="M19.9,329.4h-9.8l-1.7-11.2H-3.5l-1.7,11.2h-8.9l9.9-61.8H10L19.9,329.4z M-2.3,309.8h9.4l-4.7-31.2
					L-2.3,309.8z"/>
				<path class="st2" d="M37.5,266.9c9.4,0,14.3,5.6,14.3,15.5v1.9h-9.2v-2.6c0-4.4-1.8-6.1-4.9-6.1s-4.9,1.7-4.9,6.1
					c0,12.7,19,15.1,19,32.7c0,9.9-4.9,15.5-14.5,15.5s-14.5-5.6-14.5-15.5v-3.8h9.2v4.4c0,4.4,1.9,6,5,6s5-1.6,5-6
					c0-12.7-19-15.1-19-32.7C23.2,272.6,28,266.9,37.5,266.9z"/>
				<path class="st2" d="M84.8,331.1c-10,0-15.5-5.9-15.5-16.6v-32.1c0-10.7,5.5-16.6,15.5-16.6s15.5,5.9,15.5,16.6v7H89v-7.7
					c0-4.5-2.1-5.1-4-5.1c-1.9,0-4,0.6-4,5.1v33.4c0,4.4,2,5,4,5s4-0.6,4-5v-9.9h11.2v9.2C100.3,325.3,94.8,331.1,84.8,331.1z
					 M84.8,268c-8.8,0-13.4,5-13.4,14.5v32.1c0,9.5,4.6,14.5,13.4,14.5s13.4-5,13.4-14.5v-7.2h-7.1v7.8c0,5.8-3.3,7-6.1,7
					s-6.1-1.2-6.1-7v-33.4c0-5.9,3.3-7.1,6.1-7.1s6.1,1.2,6.1,7.1v5.6h7.1v-5C98.2,273,93.6,268,84.8,268z"/>
				<path class="st2" d="M119.1,331.1c-10,0-15.8-6-15.8-16.6v-32.1c0-10.5,5.7-16.6,15.8-16.6c10,0,15.8,6,15.8,16.6v32.1
					C134.9,325.1,129.1,331.1,119.1,331.1z M119.1,268c-8.8,0-13.7,5.1-13.7,14.5v32.1c0,9.4,4.9,14.5,13.7,14.5s13.7-5.1,13.7-14.5
					v-32.1C132.8,273.1,127.9,268,119.1,268z M119.1,322.3c-2.8,0-6.1-1.2-6.1-7.1v-33.4c0-5.9,3.3-7.1,6.1-7.1s6.1,1.2,6.1,7.1
					v33.4C125.2,321.1,121.9,322.3,119.1,322.3z M119.1,276.8c-1.9,0-4,0.6-4,5.1v33.4c0,4.5,2.1,5.1,4,5.1c1.9,0,4-0.6,4-5.1v-33.4
					C123.1,277.4,121,276.8,119.1,276.8z"/>
				<path class="st2" d="M181.8,330.4h-11.2v-31.6l-4.8,31.6h-10.9l-5.3-32.1v32.1H139v-63.9h15.4l6.2,38.2l5.8-38.2h15.4V330.4z
					 M172.7,328.4h7.1v-59.7h-11.6l-7.5,49.5l-8.1-49.5h-11.6v59.7h6.4v-42.7l2.1-0.2l7.1,42.8h7.4l6.6-43.4l2.1,0.2V328.4z"/>
				<path class="st2" d="M233.3,330.4h-12.2l-0.3-0.8c-0.5-1.6-0.9-2.7-0.9-7.8v-9.7c0-5.7-2-6.8-5.3-6.8h-2.3v25.2h-11.8v-63.9
					h15.7c10.4,0,15.4,5,15.4,15.2v4.9c0,6-1.7,10.1-5.2,12.5c4.7,3.1,5.3,8.9,5.3,13.2v9.5c0,2.8,0.1,5,1,7.1L233.3,330.4z
					 M222.6,328.4h7.7c-0.6-2-0.6-4-0.6-6.5v-9.5c0-6.8-1.8-10.5-5.8-12.2l-2.2-0.9l2.1-1c3.9-1.8,5.8-5.6,5.8-11.6v-4.9
					c0-9.1-4.1-13.2-13.4-13.2h-13.6v59.7h7.6v-25.2h4.4c5.1,0,7.4,2.7,7.4,8.9v9.7C222,325.9,222.2,327.2,222.6,328.4z M215,296.5
					h-4.8v-21h5.7c4,0,6,2.4,6,7.4v6.1C221.9,294,219.7,296.5,215,296.5z M212.3,294.4h2.8c2.9,0,4.8-0.9,4.8-5.5v-6.1
					c0-4.4-1.6-5.3-3.9-5.3h-3.6V294.4z"/>
				<path class="st2" d="M264.5,330.4H236v-63.9h28.6v10.9h-16.8v15.1h13.3v10.9h-13.3v16h16.8V330.4z M238.1,328.4h24.4v-6.8h-16.8
					v-20.2H259v-6.8h-13.3v-19.3h16.8v-6.8h-24.4V328.4z"/>
				<path class="st2" d="M296.2,330.4h-27.8v-63.9h11.8v53h16V330.4z M270.5,328.4h23.6v-6.8h-16v-53h-7.6V328.4z"/>
				<path class="st2" d="M326.9,330.4h-28.6v-63.9h28.6v10.9h-16.8v15.1h13.3v10.9h-13.3v16h16.8V330.4z M300.5,328.4h24.4v-6.8
					h-16.8v-20.2h13.3v-6.8h-13.3v-19.3h16.8v-6.8h-24.4V328.4z"/>
				<path class="st2" d="M354.2,330.4H338l-0.1-0.9l-9.7-63H340l6.5,44.3l6.5-44.3h11L354.2,330.4z M339.8,328.4h12.7l9.2-59.7h-6.8
					l-8.3,56.5l-8.3-56.5h-7.7L339.8,328.4z"/>
				<path class="st2" d="M381.3,331.1c-10,0-15.8-6-15.8-16.6v-32.1c0-10.5,5.7-16.6,15.8-16.6c10,0,15.8,6,15.8,16.6v32.1
					C397,325.1,391.3,331.1,381.3,331.1z M381.3,268c-8.8,0-13.7,5.1-13.7,14.5v32.1c0,9.4,4.9,14.5,13.7,14.5s13.7-5.1,13.7-14.5
					v-32.1C395,273.1,390.1,268,381.3,268z M381.3,322.3c-2.8,0-6.1-1.2-6.1-7.1v-33.4c0-5.9,3.3-7.1,6.1-7.1c2.8,0,6.1,1.2,6.1,7.1
					v33.4C387.3,321.1,384,322.3,381.3,322.3z M381.3,276.8c-1.9,0-4,0.6-4,5.1v33.4c0,4.5,2.1,5.1,4,5.1c1.9,0,4-0.6,4-5.1v-33.4
					C385.2,277.4,383.1,276.8,381.3,276.8z"/>
			</g>
			<g class="st1">
				<path class="st2" d="M-113.6,357.8h5.4v34.4h-5.4V357.8z"/>
				<path class="st2" d="M-99.4,367.3v24.9h-4.9v-34.4h6.8l5.6,20.6v-20.6h4.8v34.4h-5.6L-99.4,367.3z"/>
				<path class="st2" d="M-75.1,385.9l4.1-28.1h5l-5.3,34.4h-8.1l-5.3-34.4h5.5L-75.1,385.9z"/>
				<path class="st2" d="M-58,372.3h7.4v4.9H-58v10.1h9.3v4.9h-14.8v-34.4h14.8v4.9H-58V372.3z"/>
				<path class="st2" d="M-38.1,357.4c5.3,0,8,3.1,8,8.7v1.1h-5.1v-1.4c0-2.5-1-3.4-2.7-3.4s-2.7,0.9-2.7,3.4
					c0,7.1,10.6,8.4,10.6,18.2c0,5.5-2.8,8.7-8.1,8.7c-5.3,0-8.1-3.1-8.1-8.7v-2.1h5.1v2.5c0,2.5,1.1,3.3,2.8,3.3
					c1.7,0,2.8-0.9,2.8-3.3c0-7.1-10.6-8.4-10.6-18.2C-46,360.5-43.3,357.4-38.1,357.4z"/>
				<path class="st2" d="M-28.5,357.8h16.7v4.9h-5.7v29.5h-5.4v-29.5h-5.7V357.8z"/>
				<path class="st2" d="M-9.5,357.8H-4v34.4h-5.4V357.8z"/>
				<path class="st2" d="M11.3,382.2l3.7-24.4h7.5v34.4h-5.1v-24.7l-3.7,24.7H8.6l-4-24.3v24.3h-4.7v-34.4h7.5L11.3,382.2z"/>
				<path class="st2" d="M31.9,372.3h7.4v4.9h-7.4v10.1h9.3v4.9H26.5v-34.4h14.8v4.9h-9.3V372.3z"/>
				<path class="st2" d="M49.4,367.3v24.9h-4.9v-34.4h6.8l5.6,20.6v-20.6h4.8v34.4h-5.6L49.4,367.3z"/>
				<path class="st2" d="M64,357.8h16.7v4.9h-5.7v29.5h-5.4v-29.5H64V357.8z"/>
				<path class="st2" d="M82.6,366c0-5.5,2.9-8.7,8.2-8.7c5.3,0,8.2,3.1,8.2,8.7v17.9c0,5.5-2.9,8.7-8.2,8.7c-5.3,0-8.2-3.1-8.2-8.7
					V366z M88.1,384.3c0,2.5,1.1,3.4,2.8,3.4c1.7,0,2.8-0.9,2.8-3.4v-18.6c0-2.5-1.1-3.4-2.8-3.4c-1.7,0-2.8,0.9-2.8,3.4V384.3z"/>
				<path class="st2" d="M109.8,357.4c5.3,0,8,3.1,8,8.7v1.1h-5.1v-1.4c0-2.5-1-3.4-2.7-3.4c-1.7,0-2.7,0.9-2.7,3.4
					c0,7.1,10.6,8.4,10.6,18.2c0,5.5-2.8,8.7-8.1,8.7s-8.1-3.1-8.1-8.7v-2.1h5.1v2.5c0,2.5,1.1,3.3,2.8,3.3c1.7,0,2.8-0.9,2.8-3.3
					c0-7.1-10.6-8.4-10.6-18.2C101.9,360.5,104.6,357.4,109.8,357.4z"/>
				<path class="st2" d="M128.6,357.8h5.4v34.4h-5.4V357.8z"/>
				<path class="st2" d="M149.4,382.2l3.7-24.4h7.5v34.4h-5.1v-24.7l-3.7,24.7h-5.1l-4-24.3v24.3h-4.7v-34.4h7.5L149.4,382.2z"/>
				<path class="st2" d="M164.1,366c0-5.5,2.9-8.7,8.2-8.7c5.3,0,8.2,3.1,8.2,8.7v17.9c0,5.5-2.9,8.7-8.2,8.7
					c-5.3,0-8.2-3.1-8.2-8.7V366z M169.5,384.3c0,2.5,1.1,3.4,2.8,3.4c1.7,0,2.8-0.9,2.8-3.4v-18.6c0-2.5-1.1-3.4-2.8-3.4
					c-1.7,0-2.8,0.9-2.8,3.4V384.3z"/>
				<path class="st2" d="M200.2,365.7v1.2c0,3.5-1.1,5.8-3.5,6.9c2.9,1.1,4,3.7,4,7.4v2.8c0,5.3-2.8,8.2-8.2,8.2H184v-34.4h8.2
					C197.8,357.8,200.2,360.4,200.2,365.7z M189.4,362.7v9.1h2.1c2,0,3.2-0.9,3.2-3.6v-1.9c0-2.5-0.8-3.5-2.8-3.5H189.4z
					 M189.4,376.7v10.6h3.1c1.8,0,2.8-0.8,2.8-3.4v-3c0-3.2-1-4.2-3.5-4.2H189.4z"/>
				<path class="st2" d="M204,357.8h5.4v34.4H204V357.8z"/>
				<path class="st2" d="M213.3,357.8h5.4v29.5h8.9v4.9h-14.3V357.8z"/>
				<path class="st2" d="M230,357.8h5.4v34.4H230V357.8z"/>
				<path class="st2" d="M256.8,392.2h-5.5l-0.9-6.2h-6.6l-0.9,6.2h-5l5.5-34.4h7.9L256.8,392.2z M244.5,381.3h5.2l-2.6-17.4
					L244.5,381.3z"/>
				<path class="st2" d="M270.6,392.2c-0.3-0.9-0.5-1.4-0.5-4.2v-5.4c0-3.2-1.1-4.4-3.5-4.4h-1.9v14h-5.4v-34.4h8.2
					c5.6,0,8,2.6,8,7.9v2.7c0,3.5-1.1,5.9-3.5,7c2.7,1.1,3.6,3.7,3.6,7.3v5.3c0,1.7,0,2.9,0.6,4.2H270.6z M264.7,362.7v10.6h2.1
					c2,0,3.2-0.9,3.2-3.6v-3.4c0-2.5-0.8-3.5-2.8-3.5H264.7z"/>
				<path class="st2" d="M279.1,357.8h5.4v34.4h-5.4V357.8z"/>
				<path class="st2" d="M288,366c0-5.5,2.9-8.7,8.2-8.7s8.2,3.1,8.2,8.7v17.9c0,5.5-2.9,8.7-8.2,8.7s-8.2-3.1-8.2-8.7V366z
					 M293.4,384.3c0,2.5,1.1,3.4,2.8,3.4c1.7,0,2.8-0.9,2.8-3.4v-18.6c0-2.5-1.1-3.4-2.8-3.4c-1.7,0-2.8,0.9-2.8,3.4V384.3z"/>
				<path class="st2" d="M315.2,357.4c5.3,0,8,3.1,8,8.7v1.1h-5.1v-1.4c0-2.5-1-3.4-2.7-3.4c-1.7,0-2.7,0.9-2.7,3.4
					c0,7.1,10.6,8.4,10.6,18.2c0,5.5-2.8,8.7-8.1,8.7c-5.3,0-8.1-3.1-8.1-8.7v-2.1h5.1v2.5c0,2.5,1.1,3.3,2.8,3.3
					c1.7,0,2.8-0.9,2.8-3.3c0-7.1-10.6-8.4-10.6-18.2C307.2,360.5,309.9,357.4,315.2,357.4z"/>
				<path class="st2" d="M326.1,392.2V387h5.2v4.7l-2.4,5.5h-2.2l1.4-4.9H326.1z"/>
				<path class="st2" d="M342.8,357.8h5.4v29.5h8.9v4.9h-14.3V357.8z"/>
				<path class="st2" d="M359.5,357.8h8.6c5.4,0,8.1,3,8.1,8.5v17.4c0,5.5-2.7,8.5-8.1,8.5h-8.6V357.8z M364.9,362.7v24.6h3
					c1.7,0,2.8-0.9,2.8-3.3V366c0-2.5-1-3.3-2.8-3.3H364.9z"/>
				<path class="st2" d="M397,392.2h-5.5l-0.9-6.2H384l-0.9,6.2h-5l5.5-34.4h7.9L397,392.2z M384.7,381.3h5.2l-2.6-17.4L384.7,381.3
					z"/>
			</g>
		</g>
	</g>
	<g class="st0">
		<path class="st3" d="M255.1,348.6l-5.6,6.1h-4.1l3.8-6.1H255.1z"/>
	</g>
	<g>
		<linearGradient id="SVGID_1_" gradientUnits="userSpaceOnUse" x1="140.7693" y1="212.995" x2="142.0915" y2="49.9219">
			<stop  offset="0" style="stop-color:#FFFFFF;stop-opacity:0"/>
			<stop  offset="0.2645" style="stop-color:#FCE8AE;stop-opacity:0.2645"/>
			<stop  offset="0.529" style="stop-color:#F9D364;stop-opacity:0.529"/>
			<stop  offset="0.7481" style="stop-color:#F7C32E;stop-opacity:0.7481"/>
			<stop  offset="0.9112" style="stop-color:#F5BA0D;stop-opacity:0.9112"/>
			<stop  offset="1" style="stop-color:#F5B600"/>
		</linearGradient>
		<path class="st4" d="M190.1,141.3c-0.8,1-1.5,2-2.3,3c-1.3,1.7-2.6,3.5-4,5.2c-11.2,14.6-21.8,28.5-25.2,48.7
			c-0.4,2.2-2.2,3.7-4.4,3.7h-12.5v0h-12.5c-2.2,0-4-1.6-4.4-3.7c-3.4-20.2-14-34.1-25.2-48.7c-1.3-1.7-2.6-3.5-4-5.2
			c-0.8-1-1.5-2-2.3-3c-11.2-14.7-22.7-29.9-21-54.2c0,0,0,0,0,0c0.1-1.1,0.6-2.2,1.5-3L141.7,25c0,0,0,0,0,0v0
			c11.4,10,22.8,19.9,34.2,29.9v22.4l25.2,22V76.8c2.8,2.4,5.6,4.9,8.4,7.3c0.9,0.8,1.4,1.8,1.5,3c0,0,0,0,0,0
			C212.8,111.4,201.2,126.6,190.1,141.3z"/>
		<g>
			<g>
				<g>
					<path class="st2" d="M167.8,225.4c-2.7-0.6-6.5-0.8-12.5-0.8c-3.1,0-6.4,0.1-9.7,0.1c-3.2,0.1-6.5,0.1-9.5,0.1
						c-1.3,0-2.7,0-4.2,0c-1.5,0-3-0.1-4.6-0.1c-5.4,0-16.7,0-17.2,7.1c-0.1,1.9,0.5,3.6,1.9,4.9c3.1,2.8,9.3,3.2,15,3.2
						c2.6,0,5.4-0.1,8.1-0.2c2.6-0.1,5.1-0.2,7.5-0.2c1.7,0,3.6,0,5.6,0c4.4,0,9.2,0,13.3,0c7-0.1,13.6-0.1,14.1-6.5
						C176.1,227.1,171.3,226.1,167.8,225.4z"/>
					<path class="st2" d="M167.8,245.5c-2.7-0.6-6.5-0.8-12.5-0.8c-3.1,0-6.4,0.1-9.7,0.1c-3.2,0.1-6.5,0.1-9.5,0.1
						c-1.3,0-2.7,0-4.2,0c-1.5,0-3-0.1-4.6-0.1c-5.4,0-16.7,0-17.2,7.1c-0.1,1.9,0.5,3.6,1.9,4.9c3.1,2.8,9.3,3.2,15,3.2
						c2.6,0,5.4-0.1,8.1-0.2c2.6-0.1,5.1-0.2,7.5-0.2c1.7,0,3.6,0,5.6,0c4.4,0,9.2,0,13.3,0c7-0.1,13.6-0.1,14.1-6.5
						C176.1,247.3,171.3,246.3,167.8,245.5z"/>
					<path class="st2" d="M158.5,264.1L158.5,264.1c-1.8-0.5-4.9-0.7-10.5-0.7c-2.1,0-4.3,0-6.4,0.1c-1.7,0-3.4,0-5,0
						c-6.8,0-15.4,0.1-15.9,6.5c-0.2,2.1,0.4,3.8,1.8,5c2.5,2.3,6.9,2.7,13.1,2.7c1.1,0,2.2,0,3.4,0c1.2,0,2.4,0,3.6,0
						c1.4,0,2.8,0,4.2,0.1c1.4,0,2.9,0.1,4.2,0.1c4.4,0,13.6,0,14-6.6C165.4,266,161.6,264.9,158.5,264.1z"/>
				</g>
			</g>
			<g>
				<rect x="115.3" y="81.8" class="st2" width="21.4" height="21.4"/>
				<rect x="146.8" y="81.8" class="st2" width="21.4" height="21.4"/>
				<rect x="115.3" y="113.2" class="st2" width="21.4" height="21.4"/>
				<rect x="146.8" y="113.2" class="st2" width="21.4" height="21.4"/>
			</g>
		</g>
		<path class="st2" d="M228.1,85.3c0,0-0.3-3-0.8-6.1c-0.4-1.9-9.8-11.5-26.1-25.7v-36H176v14.8c-10.2-8.3-21.7-17.3-34.2-26.8v0.1
			c-51,38.4-84.8,69.9-85.5,73.5c-0.6,3.1-0.8,6.1-0.8,6.1c0,0.5-0.1,1.8-0.2,3.6c-0.1,3-0.1,6.2,0.2,9.4
			C57,120.1,68,134.8,78.5,149c0.8,1.1,1.7,2.3,2.5,3.4c1.6,2.1,3.2,4.3,5,6.5c3.8,4.9,7.8,10,11.4,15.8c5.8,9.2,11.7,21.7,11,27.1
			c-0.2,1.1-0.9,2-1.8,3.1c-1.5,1.8-3.4,4.1-2.3,8.2c1.4,5.4,8.2,5.4,14.8,5.4c0,0,0,0,0,0l22.6,0v0l22.6,0c0,0,0,0,0,0
			c6.6,0,13.3,0,14.8-5.4c1.1-4.1-0.8-6.4-2.3-8.2c-0.9-1-1.6-1.9-1.8-3.1c-0.8-5.5,5.1-17.9,11-27.1c3.7-5.8,7.6-10.9,11.4-15.8
			c1.8-2.3,3.4-4.4,5-6.5c0.8-1.1,1.7-2.3,2.5-3.4c10.6-14.2,21.5-28.8,23.4-60.1C228.4,87.1,228.1,85.8,228.1,85.3z M176,32.9
			c9.6,7.8,18,14.9,25.2,21.2V76L176,54.8V32.9z M190.1,141.3c-0.8,1-1.5,2-2.3,3c-1.3,1.7-2.6,3.5-4,5.2
			c-11.2,14.6-21.8,28.5-25.2,48.7c-0.4,2.2-2.2,3.7-4.4,3.7h-12.5v0h-12.5c-2.2,0-4-1.6-4.4-3.7c-3.4-20.2-14-34.1-25.2-48.7
			c-1.3-1.7-2.6-3.5-4-5.2c-0.8-1-1.5-2-2.3-3c-11.2-14.7-22.7-29.9-21-54.2c0,0,0,0,0,0c0.1-1.1,0.6-2.2,1.5-3L141.7,25
			c0,0,0,0,0,0v0c11.4,10,22.8,19.9,34.2,29.9v22.4l25.2,22V76.8c2.8,2.4,5.6,4.9,8.4,7.3c0.9,0.8,1.4,1.8,1.5,3c0,0,0,0,0,0
			C212.8,111.4,201.2,126.6,190.1,141.3z"/>
	</g>
</g>
<g id="Layer_2">
</g>
</svg>
