<?xml version="1.0" encoding="utf-8"?>
<!-- Generator: Adobe Illustrator 26.0.3, SVG Export Plug-In . SVG Version: 6.00 Build 0)  -->
<svg version="1.1" id="Layer_1" xmlns="http://www.w3.org/2000/svg" xmlns:xlink="http://www.w3.org/1999/xlink" x="0px" y="0px"
	 viewBox="0 0 1563.8 718.6" style="enable-background:new 0 0 1563.8 718.6;" xml:space="preserve">
<style type="text/css">
	.st0{fill:url(#SVGID_1_);}
	.st1{fill:#153D59;}
</style>
<linearGradient id="SVGID_1_" gradientUnits="userSpaceOnUse" x1="497.6105" y1="417.9082" x2="498.6905" y2="284.7082">
	<stop  offset="0" style="stop-color:#FFFFFF;stop-opacity:0"/>
	<stop  offset="0.1995" style="stop-color:#FCEDC8;stop-opacity:0.1995"/>
	<stop  offset="0.4868" style="stop-color:#F9D57E;stop-opacity:0.4868"/>
	<stop  offset="0.7255" style="stop-color:#F6C348;stop-opacity:0.7255"/>
	<stop  offset="0.9032" style="stop-color:#F5B827;stop-opacity:0.9032"/>
	<stop  offset="1" style="stop-color:#F4B41A"/>
</linearGradient>
<path class="st0" d="M537.9,359.4c-0.6,0.8-1.2,1.6-1.9,2.4c-1.1,1.4-2.2,2.8-3.2,4.2c-9.1,11.9-17.8,23.3-20.6,39.8
	c-0.3,1.8-1.8,3.1-3.6,3.1h-10.2v0h-10.2c-1.8,0-3.3-1.3-3.6-3.1c-2.8-16.5-11.4-27.9-20.6-39.8c-1.1-1.4-2.2-2.8-3.2-4.2
	c-0.6-0.8-1.2-1.6-1.9-2.4c-9.1-12-18.6-24.5-17.1-44.3c0,0,0,0,0,0c0.1-0.9,0.5-1.8,1.2-2.4l55.4-48.3c0,0,0,0,0,0v0
	c9.3,8.1,18.6,16.3,27.9,24.4V307l20.6,18v-18.3c2.3,2,4.6,4,6.8,6c0.7,0.6,1.2,1.5,1.2,2.4c0,0,0,0,0,0
	C556.4,334.9,547,347.3,537.9,359.4z"/>
<g>
	<g>
		<g>
			<g>
				<path class="st1" d="M519.7,428c-2.2-0.5-5.3-0.7-10.2-0.7c-2.5,0-5.3,0.1-7.9,0.1c-2.6,0.1-5.3,0.1-7.8,0.1c-1.1,0-2.2,0-3.4,0
					c-1.2,0-2.5,0-3.7,0c-4.4,0-13.6,0-14.1,5.8c-0.1,1.6,0.4,2.9,1.5,4c2.5,2.3,7.6,2.6,12.3,2.6c2.2,0,4.4-0.1,6.6-0.2
					c2.2-0.1,4.2-0.1,6.1-0.1c1.4,0,2.9,0,4.6,0c3.6,0,7.5,0,10.9,0c5.7-0.1,11.1-0.1,11.5-5.3C526.5,429.5,522.6,428.6,519.7,428z"
					/>
				<path class="st1" d="M519.7,444.5c-2.2-0.5-5.3-0.7-10.2-0.7c-2.5,0-5.3,0.1-7.9,0.1c-2.6,0.1-5.3,0.1-7.8,0.1
					c-1.1,0-2.2,0-3.4,0c-1.2,0-2.5,0-3.7,0c-4.4,0-13.6,0-14.1,5.8c-0.1,1.6,0.4,2.9,1.5,4c2.5,2.3,7.6,2.6,12.3,2.6
					c2.2,0,4.4-0.1,6.6-0.2c2.2-0.1,4.2-0.1,6.1-0.1c1.4,0,2.9,0,4.6,0c3.6,0,7.5,0,10.9,0c5.7-0.1,11.1-0.1,11.5-5.3
					C526.5,445.9,522.6,445.1,519.7,444.5z"/>
				<path class="st1" d="M512.1,459.7L512.1,459.7c-1.5-0.4-4-0.6-8.6-0.6c-1.7,0-3.5,0-5.2,0c-1.4,0-2.8,0-4.1,0
					c-5.6,0-12.6,0.1-13,5.3c-0.1,1.7,0.3,3.1,1.5,4.1c2,1.9,5.6,2.2,10.7,2.2c0.9,0,1.8,0,2.8,0c1,0,1.9,0,2.9,0c1.1,0,2.3,0,3.4,0
					c1.1,0,2.3,0,3.5,0c3.6,0,11.1,0,11.5-5.4C517.7,461.2,514.6,460.3,512.1,459.7z"/>
			</g>
		</g>
		<g>
			<rect x="476.8" y="310.8" class="st1" width="17.5" height="17.5"/>
			<rect x="502.5" y="310.8" class="st1" width="17.5" height="17.5"/>
			<rect x="476.8" y="336.4" class="st1" width="17.5" height="17.5"/>
			<rect x="502.5" y="336.4" class="st1" width="17.5" height="17.5"/>
		</g>
	</g>
	<g>
		<g>
			<path class="st1" d="M625.7,295.8h9.7v61.8h-9.7V295.8z"/>
			<path class="st1" d="M642.5,295.8h15.4c9.7,0,14.5,5.4,14.5,15.3v31.2c0,9.9-4.8,15.3-14.5,15.3h-15.4V295.8z M652.2,304.6v44.1
				h5.5c3.1,0,4.9-1.6,4.9-6v-32.1c0-4.4-1.9-6-4.9-6H652.2z"/>
			<path class="st1" d="M688.2,321.9h13.3v8.8h-13.3v18.1H705v8.8h-26.5v-61.8H705v8.8h-16.8V321.9z"/>
			<path class="st1" d="M711,295.8h9.7v61.8H711V295.8z"/>
			<path class="st1" d="M759.2,357.6h-9.8l-1.7-11.2h-11.9l-1.7,11.2h-8.9l9.9-61.8h14.2L759.2,357.6z M737,338h9.4l-4.7-31.2
				L737,338z"/>
			<path class="st1" d="M776.7,295.1c9.4,0,14.3,5.6,14.3,15.5v1.9h-9.2V310c0-4.4-1.8-6.1-4.9-6.1c-3.1,0-4.9,1.7-4.9,6.1
				c0,12.7,19,15.1,19,32.7c0,9.9-4.9,15.5-14.5,15.5s-14.5-5.6-14.5-15.5V339h9.2v4.4c0,4.4,1.9,6,5,6s5-1.6,5-6
				c0-12.7-19-15.1-19-32.7C762.4,300.8,767.3,295.1,776.7,295.1z"/>
			<path class="st1" d="M824.1,359.3c-10,0-15.5-5.9-15.5-16.6v-32.1c0-10.7,5.5-16.6,15.5-16.6c10,0,15.5,5.9,15.5,16.6v7h-11.2
				V310c0-4.5-2.1-5.1-4-5.1c-1.9,0-4,0.6-4,5.1v33.4c0,4.4,2,5,4,5s4-0.6,4-5v-9.9h11.2v9.2C839.6,353.5,834.1,359.3,824.1,359.3z
				 M824.1,296.1c-8.8,0-13.4,5-13.4,14.5v32.1c0,9.5,4.6,14.5,13.4,14.5c8.8,0,13.4-5,13.4-14.5v-7.2h-7.1v7.8c0,5.8-3.3,7-6.1,7
				s-6.1-1.2-6.1-7V310c0-5.9,3.3-7.1,6.1-7.1s6.1,1.2,6.1,7.1v5.6h7.1v-5C837.5,301.2,832.8,296.1,824.1,296.1z"/>
			<path class="st1" d="M858.4,359.3c-10,0-15.8-6-15.8-16.6v-32.1c0-10.5,5.7-16.6,15.8-16.6c10,0,15.8,6,15.8,16.6v32.1
				C874.2,353.3,868.4,359.3,858.4,359.3z M858.4,296.1c-8.8,0-13.7,5.1-13.7,14.5v32.1c0,9.4,4.9,14.5,13.7,14.5
				c8.8,0,13.7-5.1,13.7-14.5v-32.1C872.1,301.3,867.2,296.1,858.4,296.1z M858.4,350.5c-2.8,0-6.1-1.2-6.1-7.1V310
				c0-5.9,3.3-7.1,6.1-7.1s6.1,1.2,6.1,7.1v33.4C864.5,349.3,861.2,350.5,858.4,350.5z M858.4,305c-1.9,0-4,0.6-4,5.1v33.4
				c0,4.5,2.1,5.1,4,5.1c1.9,0,4-0.6,4-5.1V310C862.4,305.5,860.2,305,858.4,305z"/>
			<path class="st1" d="M921.1,358.6h-11.2V327l-4.8,31.6h-10.9l-5.3-32.1v32.1h-10.5v-63.9h15.4l6.2,38.2l5.8-38.2h15.4V358.6z
				 M911.9,356.6h7.1v-59.7h-11.6l-7.5,49.5l-8.1-49.5h-11.6v59.7h6.4v-42.7l2.1-0.2l7.1,42.8h7.4l6.6-43.4l2.1,0.2V356.6z"/>
			<path class="st1" d="M972.6,358.6h-12.2l-0.3-0.8c-0.5-1.6-0.9-2.7-0.9-7.8v-9.7c0-5.7-2-6.8-5.3-6.8h-2.3v25.2h-11.8v-63.9h15.7
				c10.4,0,15.4,5,15.4,15.2v4.9c0,6-1.7,10.1-5.2,12.5c4.7,3.1,5.3,8.9,5.3,13.2v9.5c0,2.8,0.1,5,1,7.1L972.6,358.6z M961.9,356.6
				h7.7c-0.6-2-0.6-4-0.6-6.5v-9.5c0-6.8-1.8-10.5-5.8-12.2l-2.2-0.9l2.1-1c3.9-1.8,5.8-5.6,5.8-11.6V310c0-9.1-4.1-13.2-13.4-13.2
				h-13.6v59.7h7.6v-25.2h4.4c5.1,0,7.4,2.7,7.4,8.9v9.7C961.3,354.1,961.5,355.4,961.9,356.6z M954.3,324.7h-4.8v-21h5.7
				c4,0,6,2.4,6,7.4v6.1C961.2,322.2,958.9,324.7,954.3,324.7z M951.6,322.6h2.8c2.9,0,4.8-0.9,4.8-5.5V311c0-4.4-1.6-5.3-3.9-5.3
				h-3.6V322.6z"/>
			<path class="st1" d="M1003.8,358.6h-28.6v-63.9h28.6v10.9h-16.8v15.1h13.3v10.9h-13.3v16h16.8V358.6z M977.3,356.6h24.4v-6.8H985
				v-20.2h13.3v-6.8H985v-19.3h16.8v-6.8h-24.4V356.6z"/>
			<path class="st1" d="M1035.5,358.6h-27.8v-63.9h11.8v53h16V358.6z M1009.8,356.6h23.6v-6.8h-16v-53h-7.6V356.6z"/>
			<path class="st1" d="M1066.2,358.6h-28.6v-63.9h28.6v10.9h-16.8v15.1h13.3v10.9h-13.3v16h16.8V358.6z M1039.7,356.6h24.4v-6.8
				h-16.8v-20.2h13.3v-6.8h-13.3v-19.3h16.8v-6.8h-24.4V356.6z"/>
			<path class="st1" d="M1093.5,358.6h-16.3l-0.1-0.9l-9.7-63h11.9l6.5,44.3l6.5-44.3h11L1093.5,358.6z M1079.1,356.6h12.7l9.2-59.7
				h-6.8l-8.3,56.5l-8.3-56.5h-7.7L1079.1,356.6z"/>
			<path class="st1" d="M1120.5,359.3c-10,0-15.8-6-15.8-16.6v-32.1c0-10.5,5.7-16.6,15.8-16.6c10,0,15.8,6,15.8,16.6v32.1
				C1136.3,353.3,1130.6,359.3,1120.5,359.3z M1120.5,296.1c-8.8,0-13.7,5.1-13.7,14.5v32.1c0,9.4,4.9,14.5,13.7,14.5
				s13.7-5.1,13.7-14.5v-32.1C1134.2,301.3,1129.4,296.1,1120.5,296.1z M1120.5,350.5c-2.8,0-6.1-1.2-6.1-7.1V310
				c0-5.9,3.3-7.1,6.1-7.1c2.8,0,6.1,1.2,6.1,7.1v33.4C1126.6,349.3,1123.3,350.5,1120.5,350.5z M1120.5,305c-1.9,0-4,0.6-4,5.1
				v33.4c0,4.5,2.1,5.1,4,5.1c1.9,0,4-0.6,4-5.1V310C1124.5,305.5,1122.4,305,1120.5,305z"/>
		</g>
		<g>
			<path class="st1" d="M625.7,386h5.4v34.4h-5.4V386z"/>
			<path class="st1" d="M639.9,395.5v24.9H635V386h6.8l5.6,20.6V386h4.8v34.4h-5.6L639.9,395.5z"/>
			<path class="st1" d="M664.2,414.1l4.1-28.1h5l-5.3,34.4h-8.1l-5.3-34.4h5.5L664.2,414.1z"/>
			<path class="st1" d="M681.2,400.5h7.4v4.9h-7.4v10.1h9.3v4.9h-14.8V386h14.8v4.9h-9.3V400.5z"/>
			<path class="st1" d="M701.2,385.6c5.3,0,8,3.1,8,8.7v1.1h-5.1v-1.4c0-2.5-1-3.4-2.7-3.4s-2.7,0.9-2.7,3.4
				c0,7.1,10.6,8.4,10.6,18.2c0,5.5-2.8,8.7-8.1,8.7c-5.3,0-8.1-3.1-8.1-8.7V410h5.1v2.5c0,2.5,1.1,3.3,2.8,3.3
				c1.7,0,2.8-0.9,2.8-3.3c0-7.1-10.6-8.4-10.6-18.2C693.2,388.7,695.9,385.6,701.2,385.6z"/>
			<path class="st1" d="M710.7,386h16.7v4.9h-5.7v29.5h-5.4v-29.5h-5.7V386z"/>
			<path class="st1" d="M729.8,386h5.4v34.4h-5.4V386z"/>
			<path class="st1" d="M750.6,410.4l3.7-24.4h7.5v34.4h-5.1v-24.7l-3.7,24.7h-5.1l-4-24.3v24.3h-4.7V386h7.5L750.6,410.4z"/>
			<path class="st1" d="M771.2,400.5h7.4v4.9h-7.4v10.1h9.3v4.9h-14.8V386h14.8v4.9h-9.3V400.5z"/>
			<path class="st1" d="M788.7,395.5v24.9h-4.9V386h6.8l5.6,20.6V386h4.8v34.4h-5.6L788.7,395.5z"/>
			<path class="st1" d="M803.3,386H820v4.9h-5.7v29.5h-5.4v-29.5h-5.7V386z"/>
			<path class="st1" d="M821.9,394.2c0-5.5,2.9-8.7,8.2-8.7c5.3,0,8.2,3.1,8.2,8.7v17.9c0,5.5-2.9,8.7-8.2,8.7
				c-5.3,0-8.2-3.1-8.2-8.7V394.2z M827.3,412.5c0,2.5,1.1,3.4,2.8,3.4c1.7,0,2.8-0.9,2.8-3.4v-18.6c0-2.5-1.1-3.4-2.8-3.4
				c-1.7,0-2.8,0.9-2.8,3.4V412.5z"/>
			<path class="st1" d="M849.1,385.6c5.3,0,8,3.1,8,8.7v1.1H852v-1.4c0-2.5-1-3.4-2.7-3.4c-1.7,0-2.7,0.9-2.7,3.4
				c0,7.1,10.6,8.4,10.6,18.2c0,5.5-2.8,8.7-8.1,8.7c-5.3,0-8.1-3.1-8.1-8.7V410h5.1v2.5c0,2.5,1.1,3.3,2.8,3.3
				c1.7,0,2.8-0.9,2.8-3.3c0-7.1-10.6-8.4-10.6-18.2C841.2,388.7,843.9,385.6,849.1,385.6z"/>
			<path class="st1" d="M867.9,386h5.4v34.4h-5.4V386z"/>
			<path class="st1" d="M888.7,410.4l3.7-24.4h7.5v34.4h-5.1v-24.7l-3.7,24.7h-5.1l-4-24.3v24.3h-4.7V386h7.5L888.7,410.4z"/>
			<path class="st1" d="M903.4,394.2c0-5.5,2.9-8.7,8.2-8.7s8.2,3.1,8.2,8.7v17.9c0,5.5-2.9,8.7-8.2,8.7s-8.2-3.1-8.2-8.7V394.2z
				 M908.8,412.5c0,2.5,1.1,3.4,2.8,3.4c1.7,0,2.8-0.9,2.8-3.4v-18.6c0-2.5-1.1-3.4-2.8-3.4c-1.7,0-2.8,0.9-2.8,3.4V412.5z"/>
			<path class="st1" d="M939.5,393.9v1.2c0,3.5-1.1,5.8-3.5,6.9c2.9,1.1,4,3.7,4,7.4v2.8c0,5.3-2.8,8.2-8.2,8.2h-8.5V386h8.2
				C937.1,386,939.5,388.6,939.5,393.9z M928.7,390.9v9.1h2.1c2,0,3.2-0.9,3.2-3.6v-1.9c0-2.5-0.8-3.5-2.8-3.5H928.7z M928.7,404.9
				v10.6h3.1c1.8,0,2.8-0.8,2.8-3.4v-3c0-3.2-1-4.2-3.5-4.2H928.7z"/>
			<path class="st1" d="M943.2,386h5.4v34.4h-5.4V386z"/>
			<path class="st1" d="M952.6,386h5.4v29.5h8.9v4.9h-14.3V386z"/>
			<path class="st1" d="M969.3,386h5.4v34.4h-5.4V386z"/>
			<path class="st1" d="M996.1,420.4h-5.5l-0.9-6.2h-6.6l-0.9,6.2h-5l5.5-34.4h7.9L996.1,420.4z M983.8,409.5h5.2l-2.6-17.4
				L983.8,409.5z"/>
			<path class="st1" d="M1009.9,420.4c-0.3-0.9-0.5-1.4-0.5-4.2v-5.4c0-3.2-1.1-4.4-3.5-4.4h-1.9v14h-5.4V386h8.2c5.6,0,8,2.6,8,7.9
				v2.7c0,3.5-1.1,5.9-3.5,7c2.7,1.1,3.6,3.7,3.6,7.3v5.3c0,1.7,0,2.9,0.6,4.2H1009.9z M1004,390.9v10.6h2.1c2,0,3.2-0.9,3.2-3.6
				v-3.4c0-2.5-0.8-3.5-2.8-3.5H1004z"/>
			<path class="st1" d="M1018.4,386h5.4v34.4h-5.4V386z"/>
			<path class="st1" d="M1027.3,394.2c0-5.5,2.9-8.7,8.2-8.7c5.3,0,8.2,3.1,8.2,8.7v17.9c0,5.5-2.9,8.7-8.2,8.7
				c-5.3,0-8.2-3.1-8.2-8.7V394.2z M1032.7,412.5c0,2.5,1.1,3.4,2.8,3.4c1.7,0,2.8-0.9,2.8-3.4v-18.6c0-2.5-1.1-3.4-2.8-3.4
				c-1.7,0-2.8,0.9-2.8,3.4V412.5z"/>
			<path class="st1" d="M1054.5,385.6c5.3,0,8,3.1,8,8.7v1.1h-5.1v-1.4c0-2.5-1-3.4-2.7-3.4c-1.7,0-2.7,0.9-2.7,3.4
				c0,7.1,10.6,8.4,10.6,18.2c0,5.5-2.8,8.7-8.1,8.7s-8.1-3.1-8.1-8.7V410h5.1v2.5c0,2.5,1.1,3.3,2.8,3.3c1.7,0,2.8-0.9,2.8-3.3
				c0-7.1-10.6-8.4-10.6-18.2C1046.5,388.7,1049.2,385.6,1054.5,385.6z"/>
			<path class="st1" d="M1065.3,420.4v-5.2h5.2v4.7l-2.4,5.5h-2.2l1.4-4.9H1065.3z"/>
			<path class="st1" d="M1082.1,386h5.4v29.5h8.9v4.9h-14.3V386z"/>
			<path class="st1" d="M1098.8,386h8.6c5.4,0,8.1,3,8.1,8.5v17.4c0,5.5-2.7,8.5-8.1,8.5h-8.6V386z M1104.2,390.9v24.6h3
				c1.7,0,2.8-0.9,2.8-3.3v-17.9c0-2.5-1-3.3-2.8-3.3H1104.2z"/>
			<path class="st1" d="M1136.3,420.4h-5.5l-0.9-6.2h-6.6l-0.9,6.2h-5l5.5-34.4h7.9L1136.3,420.4z M1124,409.5h5.2l-2.6-17.4
				L1124,409.5z"/>
		</g>
	</g>
</g>
<g>
	<path class="st1" d="M994.3,376.4l-5.6,6.1h-4.1l3.8-6.1H994.3z"/>
</g>
<path class="st1" d="M568.9,313.6c0,0-0.2-2.5-0.7-5c-0.3-1.5-8-9.4-21.3-21v-29.4h-20.6v12.1c-8.3-6.8-17.7-14.1-28-21.9v0.1
	c-41.7,31.4-69.3,57.1-69.8,60.1c-0.5,2.5-0.7,5-0.7,5c0,0.4-0.1,1.4-0.2,2.9c-0.1,2.5-0.1,5.1,0.1,7.7
	c1.4,17.8,10.3,29.8,18.9,41.3c0.7,0.9,1.4,1.8,2.1,2.8c1.3,1.7,2.7,3.5,4.1,5.3c3.1,4,6.3,8.1,9.3,12.9c4.8,7.5,9.6,17.7,8.9,22.2
	c-0.1,0.9-0.7,1.7-1.4,2.5c-1.2,1.5-2.8,3.4-1.9,6.7c1.2,4.4,6.7,4.4,12.1,4.4c0,0,0,0,0,0l18.5,0v0l18.4,0c0,0,0,0,0,0
	c5.4,0,10.9,0,12.1-4.4c0.9-3.3-0.7-5.2-1.9-6.7c-0.7-0.9-1.3-1.6-1.4-2.5c-0.6-4.5,4.2-14.6,8.9-22.2c3-4.8,6.2-8.9,9.3-12.9
	c1.4-1.8,2.8-3.6,4.1-5.3c0.7-0.9,1.4-1.8,2.1-2.8c8.6-11.6,17.6-23.5,19.1-49.1C569.2,315,569,314,568.9,313.6z M526.4,270.8
	c7.8,6.4,14.7,12.2,20.6,17.3V306l-20.6-17.3V270.8z M537.9,359.4c-0.6,0.8-1.2,1.6-1.9,2.4c-1.1,1.4-2.2,2.8-3.2,4.2
	c-9.1,11.9-17.8,23.3-20.6,39.8c-0.3,1.8-1.8,3.1-3.6,3.1h-10.2v0h-10.2c-1.8,0-3.3-1.3-3.6-3.1c-2.8-16.5-11.4-27.9-20.6-39.8
	c-1.1-1.4-2.2-2.8-3.2-4.2c-0.6-0.8-1.2-1.6-1.9-2.4c-9.1-12-18.6-24.5-17.1-44.3c0,0,0,0,0,0c0.1-0.9,0.5-1.8,1.2-2.4l55.4-48.3
	c0,0,0,0,0,0v0c9.3,8.1,18.6,16.3,27.9,24.4V307l20.6,18v-18.3c2.3,2,4.6,4,6.8,6c0.7,0.6,1.2,1.5,1.2,2.4c0,0,0,0,0,0
	C556.4,334.9,547,347.3,537.9,359.4z"/>
</svg>
