<svg xmlns="http://www.w3.org/2000/svg" xmlns:xlink="http://www.w3.org/1999/xlink" viewBox="0 0 209.06 328.1"><defs><style>.cls-1{fill:url(#linear-gradient);}.cls-2{fill:#133d59;}</style><linearGradient id="linear-gradient" x1="102.5" y1="1262.24" x2="105.16" y2="990.78" gradientTransform="translate(0 -977.94)" gradientUnits="userSpaceOnUse"><stop offset="0.17" stop-color="#fff"/><stop offset="0.19" stop-color="#fefbf4"/><stop offset="0.32" stop-color="#fbe9bb"/><stop offset="0.44" stop-color="#f9d98a"/><stop offset="0.56" stop-color="#f7cb62"/><stop offset="0.68" stop-color="#f5c143"/><stop offset="0.79" stop-color="#f4ba2d"/><stop offset="0.9" stop-color="#f3b520"/><stop offset="1" stop-color="#f3b41b"/></linearGradient></defs><g id="Layer_2" data-name="Layer 2"><g id="Layer_1-2" data-name="Layer 1"><g id="Logo"><path class="cls-1" d="M162.56,165c-.9,1.2-1.8,2.5-2.7,3.7-1.6,2.1-3.2,4.3-4.8,6.4-14.3,19.1-27.8,37.2-31,64.7H84.56c-3.2-27.5-16.8-45.6-31-64.7-1.6-2.1-3.2-4.3-4.8-6.4-.9-1.2-1.8-2.5-2.7-3.7-13.4-18.1-27.4-37-25.3-66.9a16.35,16.35,0,0,1,.2-2.2c27.7-24.8,55.6-49.7,83.3-74.4h0c27.7,24.8,55.6,49.5,83.3,74.4.1.7.1,1.5.2,2.2C190,128.2,176,146.9,162.56,165Z"/><path class="cls-2" d="M135.66,264.9c-3.2-.7-7.9-1-15-1-3.7,0-7.8.1-11.7.1s-7.9.1-11.5.1h-5.1c-1.9,0-3.7-.1-5.5-.1-6.5,0-20.1,0-20.7,8.5a7.2,7.2,0,0,0,2.2,5.8c3.7,3.4,11.2,3.9,18.1,3.9,3.2,0,6.5-.1,9.7-.2s6.2-.2,9-.2H128c8.5-.1,16.4-.1,17-7.8C145.66,267,139.86,265.9,135.66,264.9Z"/><path class="cls-2" d="M135.66,289.2c-3.2-.7-7.9-1-15-1-3.7,0-7.8.1-11.7.1s-7.9.1-11.5.1h-5.1c-1.9,0-3.7-.1-5.5-.1-6.5,0-20.1,0-20.7,8.5a7.54,7.54,0,0,0,2.2,5.9c3.7,3.4,11.2,3.9,18.1,3.9,3.2,0,6.5-.1,9.7-.2s6.2-.2,9-.2H128c8.5-.1,16.4-.1,17-7.8C145.66,291.4,139.86,290.2,135.66,289.2Z"/><path class="cls-2" d="M124.46,311.6h0c-2.2-.6-5.9-.9-12.6-.9-2.5,0-5.2,0-7.8.1h-6c-8.3,0-18.5.1-19.2,7.8a6.9,6.9,0,0,0,2.1,6c3,2.7,8.3,3.3,15.8,3.3h8.4c1.6,0,3.3,0,5.1.1s3.4.1,5.1.1c5.3,0,16.4,0,16.9-8C132.76,313.8,128.16,312.6,124.46,311.6Z"/><path class="cls-2" d="M208.36,96s-.4-3.7-1-7.4c-.4-2.2-11.8-13.8-31.4-30.9V85.8c3.3,3,6.8,5.9,10.1,8.9a5.44,5.44,0,0,1,1.8,3.6h0c2.1,29.3-11.8,47.7-25.3,65.4-.9,1.2-1.8,2.5-2.7,3.6l-4.8,6.3c-13.4,17.6-26.2,34.4-30.3,58.8a5.46,5.46,0,0,1-5.3,4.6H89.26a5.54,5.54,0,0,1-5.3-4.6c-4.1-24.4-16.9-41.2-30.3-58.8l-4.8-6.3c-.9-1.2-1.8-2.5-2.7-3.6-13.4-17.7-27.4-36.1-25.3-65.4h0a5,5,0,0,1,1.8-3.6l81.7-71.3h0c13.8,12,27.5,24,41.3,36V32.3q-18.45-15-41.3-32.3V.1C42.86,46.4,2.06,84.4,1.26,88.8c-.7,3.7-1,7.4-1,7.4,0,.6-.1,2.1-.2,4.3a107,107,0,0,0,.2,11.3c2,26.2,15.2,44,28,61,1,1.4,2,2.7,3.1,4.1,1.8,2.6,3.9,5.2,6,7.9a227.43,227.43,0,0,1,13.8,19c7,11.1,14.2,26.1,13.2,32.7a7.73,7.73,0,0,1-2.1,3.7c-1.8,2.2-4.1,5.1-2.8,10,1.7,6.5,9.9,6.5,17.9,6.5h54.4c7.9,0,16,0,17.9-6.5,1.4-4.9-1-7.8-2.8-10-1-1.2-2-2.3-2.1-3.7-1-6.7,6.2-21.6,13.2-32.7a212,212,0,0,1,13.8-19c2.1-2.7,4.2-5.3,6-7.9,1-1.4,2-2.7,3.1-4.1,12.7-17.1,25.9-34.7,28.2-72.4A40.26,40.26,0,0,0,208.36,96Z"/><path class="cls-2" d="M176,13.7h-30.4V32.2c11.6,9.4,21.8,18,30.4,25.5Z"/><path class="cls-2" d="M176,112.6V84.5c-8.6-7.5-18.9-16.1-30.4-25.5V86.1C155.66,94.9,165.76,103.8,176,112.6Z"/><rect class="cls-2" x="78.86" y="85.8" width="20.5" height="20.5"/><rect class="cls-2" x="109.06" y="85.8" width="20.5" height="20.5"/><rect class="cls-2" x="78.86" y="115.8" width="20.5" height="20.5"/><rect class="cls-2" x="109.06" y="115.8" width="20.5" height="20.5"/></g></g></g></svg>