<svg xmlns="http://www.w3.org/2000/svg" xmlns:xlink="http://www.w3.org/1999/xlink" viewBox="0 0 914.66 266.5"><defs><style>.cls-1{fill:url(#linear-gradient);}.cls-2{fill:#133d59;}</style><linearGradient id="linear-gradient" x1="83.13" y1="1208.79" x2="85.29" y2="988.47" gradientTransform="translate(0 -977.94)" gradientUnits="userSpaceOnUse"><stop offset="0.17" stop-color="#fff"/><stop offset="0.19" stop-color="#fefbf4"/><stop offset="0.32" stop-color="#fbe9bb"/><stop offset="0.44" stop-color="#f9d98a"/><stop offset="0.56" stop-color="#f7cb62"/><stop offset="0.68" stop-color="#f5c143"/><stop offset="0.79" stop-color="#f4ba2d"/><stop offset="0.9" stop-color="#f3b520"/><stop offset="1" stop-color="#f3b41b"/></linearGradient></defs><g id="Layer_2" data-name="Layer 2"><g id="Layer_1-2" data-name="Layer 1"><g id="Full_Logotype" data-name="Full Logotype"><path class="cls-1" d="M131.86,134c-.7,1-1.5,2-2.2,3-1.3,1.7-2.6,3.5-3.9,5.2-11.6,15.5-22.6,30.2-25.2,52.5h-32c-2.6-22.3-13.6-37-25.2-52.5-1.3-1.7-2.6-3.5-3.9-5.2-.7-1-1.5-2-2.2-3-10.9-14.7-22.2-30-20.5-54.3a11,11,0,0,1,.2-1.8l67.6-60.4h0q33.75,30.15,67.6,60.4c.1.6.1,1.2.2,1.8C154.06,104.1,142.76,119.3,131.86,134Z"/><path class="cls-2" d="M110.06,215.1c-2.6-.6-6.4-.8-12.2-.8-3,0-6.3.1-9.5.1s-6.4.1-9.3.1H75c-1.5,0-3-.1-4.5-.1-5.3,0-16.3,0-16.8,6.9a5.71,5.71,0,0,0,1.8,4.7c3,2.8,9.1,3.2,14.7,3.2,2.6,0,5.3-.1,7.9-.2s5-.2,7.3-.2h18.5c6.9-.1,13.3-.1,13.8-6.3C118.16,216.8,113.46,215.9,110.06,215.1Z"/><path class="cls-2" d="M110.06,234.8c-2.6-.6-6.4-.8-12.2-.8-3,0-6.3.1-9.5.1s-6.4.1-9.3.1H75c-1.5,0-3-.1-4.5-.1-5.3,0-16.3,0-16.8,6.9a6,6,0,0,0,1.8,4.8c3,2.8,9.1,3.2,14.7,3.2,2.6,0,5.3-.1,7.9-.2s5-.2,7.3-.2h18.5c6.9-.1,13.3-.1,13.8-6.3C118.16,236.6,113.46,235.6,110.06,234.8Z"/><path class="cls-2" d="M101,253h0c-1.8-.5-4.8-.7-10.2-.7-2,0-4.2,0-6.3.1h-4.9c-6.7,0-15,.1-15.6,6.3a5.65,5.65,0,0,0,1.7,4.9c2.4,2.2,6.7,2.7,12.8,2.7h6.8c1.3,0,2.7,0,4.1.1s2.8.1,4.1.1c4.3,0,13.3,0,13.7-6.5C107.66,254.8,104,253.8,101,253Z"/><path class="cls-2" d="M169.06,78s-.3-3-.8-6c-.3-1.8-9.6-11.2-25.5-25.1V69.7c2.7,2.4,5.5,4.8,8.2,7.2a4.56,4.56,0,0,1,1.5,2.9h0c1.7,23.8-9.6,38.7-20.5,53.1-.7,1-1.5,2-2.2,2.9l-3.9,5.1c-10.9,14.3-21.3,27.9-24.6,47.7a4.4,4.4,0,0,1-4.3,3.7H72.46a4.48,4.48,0,0,1-4.3-3.7c-3.3-19.8-13.7-33.4-24.6-47.7l-3.9-5.1c-.7-1-1.5-2-2.2-2.9-10.9-14.4-22.2-29.3-20.5-53.1h0a4.14,4.14,0,0,1,1.5-2.9L84.76,19h0c11.2,9.7,22.3,19.5,33.5,29.2v-22c-10-8.1-21.2-16.9-33.5-26.2V.1c-49.9,37.6-83,68.4-83.7,72a52.84,52.84,0,0,0-.8,6c0,.5-.1,1.7-.2,3.5a71,71,0,0,0,.2,9.2c1.6,21.3,12.3,35.7,22.7,49.5.8,1.1,1.6,2.2,2.5,3.3,1.5,2.1,3.2,4.2,4.9,6.4,3.7,4.8,7.6,9.7,11.2,15.4,5.7,9,11.5,21.2,10.7,26.5a7,7,0,0,1-1.7,3c-1.5,1.8-3.3,4.1-2.3,8.1,1.4,5.3,8,5.3,14.5,5.3H107c6.4,0,13,0,14.5-5.3,1.1-4-.8-6.3-2.3-8.1a6.13,6.13,0,0,1-1.7-3c-.8-5.4,5-17.5,10.7-26.5a180.62,180.62,0,0,1,11.2-15.4c1.7-2.2,3.4-4.3,4.9-6.4.8-1.1,1.6-2.2,2.5-3.3,10.3-13.9,21-28.2,22.9-58.8C169.36,79.8,169.16,78.5,169.06,78Z"/><path class="cls-2" d="M142.76,11.2h-24.7v15c9.4,7.6,17.7,14.6,24.7,20.7Z"/><path class="cls-2" d="M142.76,91.5V68.7c-7-6.1-15.3-13.1-24.7-20.7V70C126.26,77.1,134.46,84.3,142.76,91.5Z"/><rect class="cls-2" x="63.96" y="69.7" width="16.6" height="16.6"/><rect class="cls-2" x="88.46" y="69.7" width="16.6" height="16.6"/><rect class="cls-2" x="63.96" y="94.1" width="16.6" height="16.6"/><rect class="cls-2" x="88.46" y="94.1" width="16.6" height="16.6"/><path class="cls-2" d="M215.56,38.1h13.3v84.6h-13.3Z"/><path class="cls-2" d="M238.56,38.1h21c13.3,0,19.8,7.4,19.8,20.9v42.8c0,13.5-6.5,20.9-19.8,20.9h-21Zm13.3,12.1v60.4h7.5c4.2,0,6.8-2.2,6.8-8.2v-44c0-6-2.5-8.2-6.8-8.2Z"/><path class="cls-2" d="M301.16,73.8h18.2V85.9h-18.2v24.8h23v12.1h-36.3V38.2h36.3V50.3h-23Z"/><path class="cls-2" d="M332.36,38.1h13.3v84.6h-13.3Z"/><path class="cls-2" d="M398.26,122.7h-13.4l-2.3-15.3h-16.3L364,122.7h-12.2l13.5-84.6h19.5ZM368,95.9h12.8l-6.4-42.8Z"/><path class="cls-2" d="M422.36,37.2c12.9,0,19.6,7.7,19.6,21.3v2.7h-12.6V57.7c0-6-2.4-8.3-6.6-8.3s-6.6,2.3-6.6,8.3c0,17.4,26,20.7,26,44.8,0,13.5-6.8,21.3-19.8,21.3s-19.8-7.7-19.8-21.3V97.3h12.6v6c0,6,2.7,8.2,6.9,8.2s6.9-2.2,6.9-8.2c0-17.4-26-20.7-26-44.8C402.76,44.9,409.46,37.2,422.36,37.2Z"/><path class="cls-2" d="M487.16,125.1c-13.7,0-21.2-8.1-21.2-22.7v-44c0-14.6,7.5-22.7,21.2-22.7s21.2,8.1,21.2,22.7V68H493V57.5c0-6.1-2.9-6.9-5.5-6.9s-5.5.8-5.5,6.9v45.8c0,6,2.8,6.8,5.5,6.8s5.5-.8,5.5-6.8V89.8h15.4v12.7C508.36,117.1,500.86,125.1,487.16,125.1Zm0-86.5c-12,0-18.4,6.9-18.4,19.9v44c0,13,6.4,19.9,18.4,19.9s18.4-6.9,18.4-19.9V92.7h-9.7v10.6c0,8-4.5,9.6-8.3,9.6s-8.3-1.7-8.3-9.6V57.6c0-8.1,4.5-9.8,8.3-9.8s8.3,1.7,8.3,9.8v7.6h9.7V58.4C505.56,45.5,499.16,38.6,487.16,38.6Z"/><path class="cls-2" d="M534.16,125.1c-13.7,0-21.6-8.3-21.6-22.7v-44c0-14.4,7.9-22.7,21.6-22.7s21.6,8.3,21.6,22.7v44C555.76,116.9,547.86,125.1,534.16,125.1Zm0-86.5c-12.1,0-18.8,7.1-18.8,19.9v44c0,12.8,6.7,19.9,18.8,19.9s18.8-7.1,18.8-19.9v-44C552.86,45.6,546.26,38.6,534.16,38.6Zm0,74.4c-3.8,0-8.3-1.7-8.3-9.8V57.5c0-8.1,4.5-9.8,8.3-9.8s8.3,1.7,8.3,9.8v45.8C542.46,111.3,538,113,534.16,113Zm0-62.3c-2.5,0-5.5.8-5.5,6.9v45.7c0,6.1,2.9,6.9,5.5,6.9s5.5-.8,5.5-6.9V57.6C539.56,51.5,536.66,50.7,534.16,50.7Z"/><path class="cls-2" d="M620.06,124.2h-15.4V80.9l-6.5,43.3h-15l-7.3-44v44h-14.4V36.8h21L591,89.1l7.9-52.3H620l.1,87.4Zm-12.6-2.9h9.7V39.5h-15.9l-10.2,67.8-11-67.8h-15.9v81.8H573V62.9l2.8-.2,9.7,58.6h10.1l9-59.5,2.8.2v59.3Z"/><path class="cls-2" d="M690.46,124.2h-16.7l-.4-1.1c-.7-2.2-1.2-3.7-1.2-10.7V99.1c0-7.8-2.7-9.3-7.3-9.3h-3.2v34.4h-16.1V36.8h21.5c14.2,0,21.1,6.8,21.1,20.9v6.6c0,8.2-2.4,13.8-7.2,17.1,6.5,4.2,7.3,12.2,7.3,18.1v13.1c0,3.8.1,6.8,1.3,9.7Zm-14.6-2.9h10.5a30.87,30.87,0,0,1-.9-8.9V99.3c0-9.2-2.5-14.4-8-16.7l-2.9-1.2,2.9-1.4c5.3-2.5,7.9-7.7,7.9-15.9V57.5c0-12.5-5.6-18-18.3-18h-18.6v81.8H659V86.9h6c7,0,10.1,3.8,10.1,12.2v13.3C675,117.9,675.36,119.7,675.86,121.3Zm-10.4-43.7h-6.6V48.8h7.8c5.5,0,8.2,3.3,8.2,10.1v8.3C674.86,74.2,671.86,77.6,665.46,77.6Zm-3.7-2.8h3.8c3.9,0,6.6-1.3,6.6-7.5V59c0-6-2.1-7.3-5.4-7.3h-5V74.8Z"/><path class="cls-2" d="M733.26,124.2h-39.1V36.8h39.1V51.7h-23V72.4h18.2V87.3h-18.2v21.9h23ZM697,121.3h33.5v-9.2h-23V84.5h18.2V75.3h-18.2V48.9h23V39.7h-33.4l-.1,81.6Z"/><path class="cls-2" d="M776.66,124.2h-38V36.8h16.1v72.5h21.9Zm-35.2-2.9h32.3v-9.2h-21.9V39.6h-10.4v81.7Z"/><path class="cls-2" d="M818.66,124.2h-39.1V36.8h39.1V51.7h-23V72.4h18.2V87.3h-18.2v21.9h23Zm-36.2-2.9h33.4v-9.2h-23V84.5h18.2V75.3h-18.2V48.9h23V39.7h-33.4Z"/><path class="cls-2" d="M856.06,124.2h-22.3l-.2-1.2-13.3-86.2h16.3l8.9,60.7,8.9-60.7h15.1Zm-19.8-2.9h17.4l12.6-81.8H857l-11.4,77.3-11.4-77.3h-10.5Z"/><path class="cls-2" d="M893.06,125.1c-13.7,0-21.6-8.3-21.6-22.7v-44c0-14.4,7.9-22.7,21.6-22.7s21.6,8.3,21.6,22.7v44C914.66,116.9,906.76,125.1,893.06,125.1Zm0-86.5c-12.1,0-18.8,7.1-18.8,19.9v44c0,12.8,6.7,19.9,18.8,19.9s18.8-7.1,18.8-19.9v-44C911.86,45.6,905.16,38.6,893.06,38.6Zm0,74.4c-3.8,0-8.3-1.7-8.3-9.8V57.5c0-8.1,4.5-9.8,8.3-9.8s8.3,1.7,8.3,9.8v45.8C901.36,111.3,896.86,113,893.06,113Zm0-62.3c-2.5,0-5.5.8-5.5,6.9v45.7c0,6.1,2.9,6.9,5.5,6.9s5.5-.8,5.5-6.9V57.6C898.56,51.5,895.56,50.7,893.06,50.7Z"/><path class="cls-2" d="M224.86,162h7.3v46.5h-7.3Z"/><path class="cls-2" d="M244,174.8v33.6h-6.5V161.9h9.2l7.5,27.8V161.9h6.5v46.5h-7.5Z"/><path class="cls-2" d="M276.86,199.9l5.6-37.9h6.7L282,208.5h-10.9l-7.2-46.5h7.4Z"/><path class="cls-2" d="M299.76,181.6h10v6.6h-10v13.6h12.7v6.6h-20V161.9h20v6.6h-12.6l-.1,13.1Z"/><path class="cls-2" d="M326.76,161.5c7.1,0,10.8,4.2,10.8,11.7v1.5h-6.9v-1.9c0-3.3-1.3-4.6-3.6-4.6s-3.6,1.3-3.6,4.6c0,9.6,14.3,11.3,14.3,24.6,0,7.4-3.7,11.7-10.9,11.7S316,204.9,316,197.4v-2.9h6.9v3.3c0,3.3,1.5,4.5,3.8,4.5s3.8-1.2,3.8-4.5c0-9.6-14.3-11.3-14.3-24.6C316,165.7,319.66,161.5,326.76,161.5Z"/><path class="cls-2" d="M339.66,162h22.6v6.6h-7.6v39.8h-7.3V168.6h-7.6l-.1-6.6Z"/><path class="cls-2" d="M365.36,162h7.3v46.5h-7.3Z"/><path class="cls-2" d="M393.46,195l5-33h10.2v46.5h-6.9V175.2l-5,33.3h-6.9l-5.4-32.8v32.8h-6.4V162h10.2Z"/><path class="cls-2" d="M421.16,181.6h10v6.6h-10v13.6h12.6v6.6h-19.9V161.9h19.9v6.6h-12.6Z"/><path class="cls-2" d="M444.76,174.8v33.6h-6.6V161.9h9.2l7.5,27.8V161.9h6.5v46.5h-7.5Z"/><path class="cls-2" d="M464.56,162h22.6v6.6h-7.7v39.8h-7.3V168.6h-7.6V162Z"/><path class="cls-2" d="M489.66,173.1c0-7.4,3.9-11.7,11.1-11.7s11.1,4.2,11.1,11.7v24.2c0,7.4-3.9,11.7-11.1,11.7s-11.1-4.2-11.1-11.7Zm7.3,24.7c0,3.3,1.5,4.6,3.8,4.6s3.8-1.3,3.8-4.6V172.7c0-3.3-1.5-4.6-3.8-4.6s-3.8,1.3-3.8,4.6Z"/><path class="cls-2" d="M526.36,161.5c7.1,0,10.8,4.2,10.8,11.7v1.5h-6.9v-1.9c0-3.3-1.3-4.6-3.6-4.6s-3.6,1.3-3.6,4.6c0,9.6,14.3,11.3,14.3,24.6,0,7.4-3.7,11.7-10.9,11.7s-11-4.4-11-11.8v-2.9h6.9v3.3c0,3.3,1.5,4.5,3.8,4.5s3.8-1.2,3.8-4.5c0-9.6-14.3-11.3-14.3-24.6C515.66,165.7,519.26,161.5,526.36,161.5Z"/><path class="cls-2" d="M551.66,162H559v46.5h-7.3Z"/><path class="cls-2" d="M579.76,195l5-33H595v46.5h-6.9V175.2l-5,33.3h-6.9l-5.4-32.8v32.8h-6.4V162h10.2Z"/><path class="cls-2" d="M599.56,173.1c0-7.4,3.9-11.7,11.1-11.7s11.1,4.2,11.1,11.7v24.2c0,7.4-3.9,11.7-11.1,11.7s-11.1-4.2-11.1-11.7Zm7.3,24.7c0,3.3,1.5,4.6,3.8,4.6s3.8-1.3,3.8-4.6V172.7c0-3.3-1.5-4.6-3.8-4.6s-3.8,1.3-3.8,4.6Z"/><path class="cls-2" d="M648.26,172.7v1.7c0,4.8-1.5,7.8-4.7,9.4,3.9,1.5,5.4,5,5.4,10v3.8c0,7.2-3.8,11-11.1,11h-11.4V162.1h11C645.06,162,648.26,165.5,648.26,172.7Zm-14.5-4.1v12.3h2.9c2.7,0,4.4-1.2,4.4-4.9v-2.6c0-3.3-1.1-4.8-3.7-4.8Zm0,18.9v14.3H638c2.5,0,3.8-1.1,3.8-4.6v-4c0-4.3-1.4-5.6-4.7-5.6l-3.3-.1Z"/><path class="cls-2" d="M653.36,162h7.3v46.5h-7.3Z"/><path class="cls-2" d="M666,162h7.3v39.8h12v6.6H666Z"/><path class="cls-2" d="M688.46,162h7.3v46.5h-7.3Z"/><path class="cls-2" d="M724.76,208.4h-7.4l-1.3-8.4h-9l-1.3,8.4h-6.7l7.4-46.5h10.7Zm-16.7-14.7h7l-3.5-23.5Z"/><path class="cls-2" d="M743.36,208.4c-.4-1.2-.7-1.9-.7-5.7v-7.3c0-4.3-1.5-5.9-4.8-5.9h-2.5v18.9h-7.3V161.9h11c7.6,0,10.8,3.5,10.8,10.7v3.6c0,4.8-1.5,7.9-4.8,9.4,3.6,1.5,4.8,5,4.8,9.9v7.2a13.8,13.8,0,0,0,.8,5.6l-7.3.1Zm-8-39.8v14.3h2.9c2.7,0,4.4-1.2,4.4-4.9v-4.6c0-3.3-1.1-4.8-3.7-4.8Z"/><path class="cls-2" d="M754.76,162h7.3v46.5h-7.3Z"/><path class="cls-2" d="M766.76,173.1c0-7.4,3.9-11.7,11.1-11.7s11.1,4.2,11.1,11.7v24.2c0,7.4-3.9,11.7-11.1,11.7s-11.1-4.2-11.1-11.7Zm7.3,24.7c0,3.3,1.5,4.6,3.8,4.6s3.8-1.3,3.8-4.6V172.7c0-3.3-1.5-4.6-3.8-4.6s-3.8,1.3-3.8,4.6Z"/><path class="cls-2" d="M803.46,161.5c7.1,0,10.8,4.2,10.8,11.7v1.5h-6.9v-1.9c0-3.3-1.3-4.6-3.6-4.6s-3.6,1.3-3.6,4.6c0,9.6,14.3,11.3,14.3,24.6,0,7.4-3.7,11.7-10.9,11.7s-10.9-4.2-10.9-11.7v-2.9h6.9v3.3c0,3.3,1.5,4.5,3.8,4.5s3.8-1.2,3.8-4.5c0-9.6-14.3-11.3-14.3-24.6C792.76,165.7,796.36,161.5,803.46,161.5Z"/><path class="cls-2" d="M818.16,208.4v-7h7v6.3l-3.2,7.4h-3l1.9-6.6-2.7-.1Z"/><path class="cls-2" d="M840.76,162h7.3v39.8h12v6.6h-19.3Z"/><path class="cls-2" d="M863.26,162h11.5c7.3,0,10.9,4,10.9,11.5V197c0,7.4-3.6,11.5-10.9,11.5h-11.5Zm7.3,6.6v33.2h4.1c2.3,0,3.7-1.2,3.7-4.5V173.1c0-3.3-1.4-4.5-3.7-4.5Z"/><path class="cls-2" d="M914,208.4h-7.4l-1.3-8.4h-9l-1.3,8.4h-6.7l7.4-46.5h10.8Zm-16.7-14.7h7l-3.5-23.5Z"/></g></g></g></svg>