<svg xmlns="http://www.w3.org/2000/svg" viewBox="0 0 1474 188.6"><defs><style>.cls-1{fill:#133d59;}</style></defs><g id="Layer_2" data-name="Layer 2"><g id="Layer_1-2" data-name="Layer 1"><g id="Logotype"><path class="cls-1" d="M0,5.2H28V183.6H0Z"/><path class="cls-1" d="M48.5,5.2H92.8c28,0,41.7,15.6,41.7,44.1v90.2c0,28.5-13.7,44.1-41.7,44.1H48.5ZM76.6,30.7V158.1H92.4c8.9,0,14.3-4.6,14.3-17.3V48c0-12.7-5.3-17.3-14.3-17.3Z"/><path class="cls-1" d="M180.5,80.5h38.4V106H180.5v52.3H229v25.5H152.5V5.4H229V30.9H180.5Z"/><path class="cls-1" d="M246.3,5.2h28V183.6h-28Z"/><path class="cls-1" d="M385.2,183.6H356.9l-4.8-32.3H317.7l-4.8,32.3H287.2L315.7,5.2h41.1Zm-63.8-56.5h27L334.9,36.9Z"/><path class="cls-1" d="M436.1,3.3c27.2,0,41.3,16.2,41.3,44.9v5.7H450.8V46.5c0-12.7-5.1-17.5-13.9-17.5S423,33.8,423,46.5c0,36.7,54.8,43.6,54.8,94.5,0,28.5-14.3,44.9-41.7,44.9s-41.7-16.2-41.7-44.9V130H421v12.7c0,12.7,5.7,17.3,14.5,17.3s14.5-4.6,14.5-17.3c0-36.7-54.8-43.6-54.8-94.5C394.7,19.5,408.9,3.3,436.1,3.3Z"/><path class="cls-1" d="M572.7,188.6c-28.9,0-44.7-17.1-44.7-47.9V47.9C528,17.1,543.8,0,572.7,0s44.7,17.1,44.7,47.9V68.3H584.9V46.1c0-12.9-6.1-14.5-11.6-14.5-5.3,0-11.6,1.7-11.6,14.5v96.6c0,12.7,5.9,14.3,11.6,14.3s11.6-1.7,11.6-14.3V114.2h32.5V141C617.4,171.8,601.6,188.6,572.7,188.6Zm0-182.3c-25.3,0-38.8,14.5-38.8,42v92.8c0,27.4,13.5,42,38.8,42s38.8-14.5,38.8-42V120.3H591v22.4c0,16.9-9.5,20.2-17.5,20.2S556,159.3,556,142.7V46.3c0-17.1,9.5-20.7,17.5-20.7S591,29.2,591,46.3v16h20.5V48C611.5,20.8,598,6.3,572.7,6.3Z"/><path class="cls-1" d="M671.8,188.6c-28.9,0-45.5-17.5-45.5-47.9V47.9C626.3,17.5,643,0,671.8,0s45.5,17.5,45.5,47.9v92.8C717.3,171.4,700.7,188.6,671.8,188.6Zm0-182.3c-25.5,0-39.6,15-39.6,42v92.8c0,27,14.1,42,39.6,42s39.6-15,39.6-42V48.3C711.2,21,697.3,6.3,671.8,6.3Zm0,156.8c-8,0-17.5-3.6-17.5-20.7V46.1c0-17.1,9.5-20.7,17.5-20.7s17.5,3.6,17.5,20.7v96.6C689.3,159.5,679.8,163.1,671.8,163.1Zm0-131.3c-5.3,0-11.6,1.7-11.6,14.5v96.4c0,12.9,6.1,14.5,11.6,14.5,5.3,0,11.6-1.7,11.6-14.5V46.3C683.2,33.5,677.1,31.8,671.8,31.8Z"/><path class="cls-1" d="M852.9,186.7H820.4V95.4l-13.7,91.3H775.1L759.7,93.9v92.8H729.3V2.5h44.3l17.9,110.3L808.2,2.5h44.5V186.8h.2Zm-26.6-6.1h20.5V8.2H813.3l-21.5,143L768.6,8.2H735.1V180.7h18.6V57.5l5.9-.4,20.5,123.6h21.3l19-125.5,5.9.4v125Z"/><path class="cls-1" d="M1001.4,186.7H966.2l-.8-2.3c-1.5-4.6-2.5-7.8-2.5-22.6v-28c0-16.4-5.7-19.6-15.4-19.6h-6.7v72.5H906.9V2.5h45.3c29.9,0,44.5,14.3,44.5,44.1V60.5c0,17.3-5.1,29.1-15.2,36.1,13.7,8.9,15.4,25.7,15.4,38.2v27.5c0,8,.2,14.3,2.7,20.5Zm-30.8-6.1h22.1c-1.7-5.7-1.9-11.6-1.9-18.8V134.2c0-19.4-5.3-30.4-16.9-35.2l-6.1-2.5,6.1-3c11.2-5.3,16.7-16.2,16.7-33.5V46.1c0-26.4-11.8-38-38.6-38H912.8V180.6h22.1V108.1h12.7c14.8,0,21.3,8,21.3,25.7v28C968.7,173.5,969.5,177.3,970.6,180.6Zm-22-92.1H934.7V27.8h16.4c11.6,0,17.3,7,17.3,21.3V66.6C968.5,81.3,962.1,88.5,948.6,88.5Zm-7.8-5.9h8c8.2,0,13.9-2.7,13.9-15.8V49.3c0-12.7-4.4-15.4-11.4-15.4H940.8V82.6Z"/><path class="cls-1" d="M1091.6,186.7h-82.4V2.5h82.4V33.9h-48.5V77.5h38.4v31.4h-38.4v46.2h48.5Zm-76.5-6.1h70.6V161.2h-48.5V103h38.4V83.6h-38.4V28h48.5V8.6h-70.4V180.7h-.2Z"/><path class="cls-1" d="M1183.1,186.7H1103V2.5h33.9V155.3h46.2Zm-74.2-6.1H1177V161.2h-46.2V8.4h-21.9Z"/><path class="cls-1" d="M1271.7,186.7h-82.4V2.5h82.4V33.9h-48.5V77.5h38.4v31.4h-38.4v46.2h48.5Zm-76.4-6.1h70.4V161.2h-48.4V103h38.4V83.6h-38.4V28h48.5V8.6h-70.5Z"/><path class="cls-1" d="M1350.5,186.7h-47l-.4-2.5-28-181.8h34.4l18.8,128,18.8-128h31.8Zm-41.7-6.1h36.7L1372.1,8.1h-19.6l-24,163-24-163h-22.1Z"/><path class="cls-1" d="M1428.5,188.6c-28.9,0-45.5-17.5-45.5-47.9V47.9c0-30.4,16.7-47.9,45.5-47.9S1474,17.5,1474,47.9v92.8C1474.1,171.4,1457.4,188.6,1428.5,188.6Zm0-182.3c-25.5,0-39.6,15-39.6,42v92.8c0,27,14.1,42,39.6,42s39.6-15,39.6-42V48.3C1468.2,21,1454.1,6.3,1428.5,6.3Zm0,156.8c-8,0-17.5-3.6-17.5-20.7V46.1c0-17.1,9.5-20.7,17.5-20.7S1446,29,1446,46.1v96.6C1446,159.5,1436.6,163.1,1428.5,163.1Zm0-131.3c-5.3,0-11.6,1.7-11.6,14.5v96.4c0,12.9,6.1,14.5,11.6,14.5,5.3,0,11.6-1.7,11.6-14.5V46.3C1440.1,33.5,1433.8,31.8,1428.5,31.8Z"/></g></g></g></svg>