<svg xmlns="http://www.w3.org/2000/svg" viewBox="0 0 1473.9 378.3"><defs><style>.cls-1{fill:#133d59;}</style></defs><g id="Layer_2" data-name="Layer 2"><g id="Layer_1-2" data-name="Layer 1"><g id="description"><path class="cls-1" d="M10.5,266.4H25.9v98H10.5Z"/><path class="cls-1" d="M50.8,293.3v70.8H37.1v-98H56.5l15.8,58.6V266.1H86v98H70.2Z"/><path class="cls-1" d="M120.1,346.3l11.8-79.9H146l-15.2,98h-23l-15.2-98h15.6Z"/><path class="cls-1" d="M168.4,307.7h21.1v13.9H168.4v28.7h26.8v13.9H153v-98h42.2v13.9H168.6v27.6Z"/><path class="cls-1" d="M225.3,265.3c15,0,22.8,8.9,22.8,24.7v3.2H233.6v-4c0-7-2.7-9.7-7.6-9.7s-7.6,2.7-7.6,9.7c0,20.2,30.2,23.8,30.2,51.9,0,15.6-7.8,24.7-23,24.7s-23-8.9-23-24.7V335h14.5v7c0,7,3.2,9.5,8,9.5s8-2.5,8-9.5c0-20.2-30.2-23.8-30.2-51.9C202.6,274.2,210.4,265.3,225.3,265.3Z"/><path class="cls-1" d="M252.5,266.4h47.7v13.9h-16v83.9H268.8V280.3h-16V266.4Z"/><path class="cls-1" d="M306.7,266.4h15.4v98H306.7Z"/><path class="cls-1" d="M366,335.9l10.5-69.6H398v98H383.5V294.1L373,364.3H358.5l-11.4-69.2v69.2H333.6v-98h21.5Z"/><path class="cls-1" d="M424.4,307.7h21.1v13.9H424.4v28.7H451v13.9H409v-98h42v13.9H424.4Z"/><path class="cls-1" d="M474.1,293.3v70.8H460.2v-98h19.4l15.8,58.6V266.1h13.7v98H493.3Z"/><path class="cls-1" d="M515.9,266.4h47.7v13.9H547.4v83.9H532V280.3H516l-.1-13.9Z"/><path class="cls-1" d="M568.8,289.8c0-15.6,8.2-24.7,23.4-24.7s23.4,8.9,23.4,24.7v51c0,15.6-8.2,24.7-23.4,24.7s-23.4-8.9-23.4-24.7Zm15.4,52c0,7,3.2,9.7,8,9.7s8-2.7,8-9.7V288.9c0-7-3.2-9.7-8-9.7s-8,2.7-8,9.7Z"/><path class="cls-1" d="M646.2,265.3c15,0,22.8,8.9,22.8,24.7v3.2H654.5v-4c0-7-2.7-9.7-7.6-9.7s-7.6,2.7-7.6,9.7c0,20.2,30.2,23.8,30.2,51.9,0,15.6-7.8,24.7-23,24.7s-23.2-9.3-23.2-24.9v-6.1h14.5v7c0,7,3.2,9.5,8,9.5s8-2.5,8-9.5c0-20.2-30.2-23.8-30.2-51.9C623.6,274.2,631.2,265.3,646.2,265.3Z"/><path class="cls-1" d="M699.5,266.4h15.4v98H699.5Z"/><path class="cls-1" d="M758.8,335.9l10.5-69.6h21.5v98H776.3V294.1l-10.5,70.2H751.2l-11.4-69.2v69.2H726.3v-98h21.5Z"/><path class="cls-1" d="M800.5,289.8c0-15.6,8.2-24.7,23.4-24.7s23.4,8.9,23.4,24.7v51c0,15.6-8.2,24.7-23.4,24.7s-23.4-8.9-23.4-24.7Zm15.4,52c0,7,3.2,9.7,8,9.7s8-2.7,8-9.7V288.9c0-7-3.2-9.7-8-9.7s-8,2.7-8,9.7Z"/><path class="cls-1" d="M903.2,288.9v3.6c0,10.1-3.2,16.4-9.9,19.8,8.2,3.2,11.4,10.5,11.4,21.1v8c0,15.2-8,23.2-23.4,23.2h-24v-98h23.2C896.5,266.4,903.2,273.7,903.2,288.9Zm-30.6-8.6v25.9h6.1c5.7,0,9.3-2.5,9.3-10.3v-5.5c0-7-2.3-10.1-7.8-10.1Zm0,39.8v30.2h8.9c5.3,0,8-2.3,8-9.7v-8.4c0-9.1-3-11.8-9.9-11.8h-7Z"/><path class="cls-1" d="M914,266.4h15.4v98H914Z"/><path class="cls-1" d="M940.5,266.4h15.4v83.9h25.3v13.9H940.5Z"/><path class="cls-1" d="M988,266.4h15.4v98H988Z"/><path class="cls-1" d="M1064.5,364.2h-15.6l-2.7-17.7h-19l-2.7,17.7h-14.1l15.6-98h22.6Zm-35.2-31h14.8l-7.4-49.5Z"/><path class="cls-1" d="M1103.7,364.2c-.8-2.5-1.5-4-1.5-12V336.8c0-9.1-3.2-12.4-10.1-12.4h-5.3v39.8h-15.4v-98h23.2c16,0,22.8,7.4,22.8,22.6v7.6c0,10.1-3.2,16.7-10.1,19.8,7.6,3.2,10.1,10.5,10.1,20.9v15.2c0,4.8.2,8.2,1.7,11.8h-15.4v.1Zm-16.9-83.9v30.2h6.1c5.7,0,9.3-2.5,9.3-10.3v-9.7c0-7-2.3-10.1-7.8-10.1h-7.6Z"/><path class="cls-1" d="M1127.7,266.4h15.4v98h-15.4Z"/><path class="cls-1" d="M1153,289.8c0-15.6,8.2-24.7,23.4-24.7s23.4,8.9,23.4,24.7v51c0,15.6-8.2,24.7-23.4,24.7s-23.4-8.9-23.4-24.7Zm15.4,52c0,7,3.2,9.7,8,9.7s8-2.7,8-9.7V288.9c0-7-3.2-9.7-8-9.7s-8,2.7-8,9.7Z"/><path class="cls-1" d="M1230.4,265.3c15,0,22.8,8.9,22.8,24.7v3.2h-14.5v-4c0-7-2.7-9.7-7.6-9.7s-7.6,2.7-7.6,9.7c0,20.2,30.2,23.8,30.2,51.9,0,15.6-7.8,24.7-23,24.7s-23-8.9-23-24.7V335h14.5v7c0,7,3.2,9.5,8,9.5s8-2.5,8-9.5c0-20.2-30.2-23.8-30.2-51.9C1207.9,274.2,1215.5,265.3,1230.4,265.3Z"/><path class="cls-1" d="M1261.4,364.2V349.4h14.8v13.3l-6.7,15.6h-6.3l4-13.9h-5.7v-.2Z"/><path class="cls-1" d="M1309.1,266.4h15.4v83.9h25.3v13.9h-40.7Z"/><path class="cls-1" d="M1356.5,266.4h24.2c15.4,0,23,8.4,23,24.2v49.5c0,15.6-7.6,24.2-23,24.2h-24.2Zm15.4,13.9v70h8.6c4.8,0,7.8-2.5,7.8-9.5v-51c0-7-3-9.5-7.8-9.5Z"/><path class="cls-1" d="M1463.4,364.2h-15.6l-2.7-17.7h-19l-2.7,17.7h-14.2l15.6-98h22.8Zm-35.2-31H1443l-7.4-49.5Z"/><path class="cls-1" d="M0,5.1H28V183.5H0Z"/><path class="cls-1" d="M48.4,5.1H92.7c28,0,41.7,15.6,41.7,44.1v90.2c0,28.5-13.7,44.1-41.7,44.1H48.4ZM76.5,30.6V157.9H92.3c8.9,0,14.3-4.6,14.3-17.3V47.8c0-12.7-5.3-17.3-14.3-17.3H76.5Z"/><path class="cls-1" d="M180.4,80.4h38.4v25.5H180.4v52.3h48.5v25.5H152.4V5.3h76.5V30.8H180.4Z"/><path class="cls-1" d="M246.2,5.1h28V183.5h-28Z"/><path class="cls-1" d="M385.2,183.5H356.9l-4.8-32.3H317.7l-4.8,32.3H287.2L315.7,5.1h41.1ZM321.3,127h27L334.8,36.8Z"/><path class="cls-1" d="M436,3.2c27.2,0,41.3,16.2,41.3,44.9v5.7H450.7V46.4c0-12.7-5.1-17.5-13.9-17.5s-13.9,4.8-13.9,17.5c0,36.7,54.8,43.6,54.8,94.5,0,28.5-14.3,44.9-41.7,44.9s-41.7-16.2-41.7-44.9v-11h26.6v12.7c0,12.7,5.7,17.3,14.5,17.3s14.5-4.6,14.5-17.3c0-36.7-54.8-43.6-54.8-94.5C394.6,19.5,408.8,3.2,436,3.2Z"/><path class="cls-1" d="M572.6,188.6c-28.9,0-44.7-17.1-44.7-47.9V47.9C527.9,17.1,543.7,0,572.6,0s44.7,17.1,44.7,47.9V68.1H584.8V46c0-12.9-6.1-14.5-11.6-14.5-5.3,0-11.6,1.7-11.6,14.5v96.6c0,12.7,5.9,14.3,11.6,14.3s11.6-1.7,11.6-14.3V114.1h32.5v26.8C617.3,171.7,601.5,188.6,572.6,188.6Zm0-182.4c-25.3,0-38.8,14.5-38.8,42V141c0,27.4,13.5,42,38.8,42s38.8-14.5,38.8-42V120.3H590.9v22.3c0,16.9-9.5,20.2-17.5,20.2s-17.5-3.6-17.5-20.2V46.2c0-17.1,9.5-20.7,17.5-20.7s17.5,3.6,17.5,20.7v16h20.5V47.9C611.4,20.7,597.9,6.2,572.6,6.2Z"/><path class="cls-1" d="M671.7,188.6c-28.9,0-45.5-17.5-45.5-47.9V47.9C626.2,17.5,642.9,0,671.7,0s45.5,17.5,45.5,47.9v92.8C717.2,171.3,700.6,188.6,671.7,188.6Zm0-182.4c-25.5,0-39.6,15-39.6,42V141c0,27,14.1,42,39.6,42s39.6-15,39.6-42V48.2C711.1,20.9,697.2,6.2,671.7,6.2Zm0,156.8c-8,0-17.5-3.6-17.5-20.7V45.9c0-17.1,9.5-20.7,17.5-20.7s17.5,3.6,17.5,20.7v96.6C689.2,159.5,679.7,163,671.7,163Zm0-131.3c-5.3,0-11.6,1.7-11.6,14.5v96.4c0,12.9,6.1,14.5,11.6,14.5,5.3,0,11.6-1.7,11.6-14.5V46.2C683.1,33.4,677,31.7,671.7,31.7Z"/><path class="cls-1" d="M852.8,186.7H820.3V95.4l-13.7,91.3H775L759.6,93.9v92.8H729.2V2.4h44.3l17.9,110.3L808.1,2.4h44.5V186.7Zm-26.6-6.2h20.5V8.1H813.2l-21.5,143L768.5,8.1H735V180.6h18.6V57.4l5.9-.4L780,180.6h21.3l19-125.5,5.9.4v125Z"/><path class="cls-1" d="M1001.2,186.7H966l-.8-2.3c-1.5-4.6-2.5-7.8-2.5-22.6v-28c0-16.4-5.7-19.6-15.4-19.6h-6.7v72.5H906.7V2.4H952c29.9,0,44.5,14.3,44.5,44.1V60.4c0,17.3-5.1,29.1-15.2,36.1,13.7,8.9,15.4,25.7,15.4,38.2v27.6c0,8,.2,14.3,2.7,20.5Zm-30.7-6.2h22.1c-1.7-5.7-1.9-11.6-1.9-18.8V134.1c0-19.4-5.3-30.4-16.9-35.2l-6.1-2.5,6.1-3c11.2-5.3,16.7-16.2,16.7-33.5V46c0-26.4-11.8-38-38.6-38H912.7V180.5h22.1V108h12.7c14.8,0,21.3,8,21.3,25.7v28C968.6,173.4,969.4,177.2,970.5,180.5Zm-22-92.1H934.6V27.7H951c11.6,0,17.3,7,17.3,21.3V66.5C968.3,81.2,962,88.4,948.5,88.4Zm-7.8-5.9h8c8.2,0,13.9-2.7,13.9-15.8V49.2c0-12.7-4.4-15.4-11.4-15.4H940.7V82.5Z"/><path class="cls-1" d="M1091.5,186.7h-82.4V2.4h82.4V33.8H1043V77.4h38.4v31.4H1043V155h48.5Zm-76.6-6.2h70.6V161.1H1037V102.9h38.4V83.5H1037V27.8h48.5V8.4h-70.3v172h-.3Z"/><path class="cls-1" d="M1183,186.7h-80.1V2.4h33.9V155.3H1183Zm-74.2-6.2h68.1V161.1h-46.2V8.3h-21.9Z"/><path class="cls-1" d="M1271.5,186.7h-82.4V2.4h82.4V33.8H1223V77.4h38.4v31.4H1223V155h48.5v31.7Zm-76.3-6.2h70.4V161.1h-48.5V102.9h38.4V83.5h-38.4V27.8h48.5V8.4h-70.4Z"/><path class="cls-1" d="M1350.4,186.7h-47l-.4-2.5L1275,2.5h34.4l18.8,128L1347,2.5h31.8Zm-41.8-6.2h36.7L1371.9,8h-19.6l-24,163-24-163h-22.1Z"/><path class="cls-1" d="M1428.4,188.6c-28.9,0-45.5-17.5-45.5-47.9V47.9c0-30.4,16.7-47.9,45.5-47.9s45.5,17.5,45.5,47.9v92.8C1473.9,171.3,1457.3,188.6,1428.4,188.6Zm0-182.4c-25.5,0-39.6,15-39.6,42V141c0,27,14.1,42,39.6,42s39.6-15,39.6-42V48.2C1468,20.9,1453.9,6.2,1428.4,6.2Zm0,156.8c-8,0-17.5-3.6-17.5-20.7V45.9c0-17.1,9.5-20.7,17.5-20.7s17.5,3.6,17.5,20.7v96.6C1445.9,159.5,1436.4,163,1428.4,163Zm0-131.3c-5.3,0-11.6,1.7-11.6,14.5v96.4c0,12.9,6.1,14.5,11.6,14.5,5.3,0,11.6-1.7,11.6-14.5V46.2C1440,33.4,1433.7,31.7,1428.4,31.7Z"/></g></g></g></svg>